{
  "accessors": [
    {
      "bufferView": 2,
      "componentType": 5126,
      "count": 42,
      "max": [
        -6.562403678894043,
        26.856605529785156,
        5.416934013366699
      ],
      "min": [
        -7.334182262420654,
        19.523014068603516,
        4.64515495300293
      ],
      "type": "VEC3"
    },
    {
      "bufferView": 2,
      "byteOffset": 504,
      "componentType": 5126,
      "count": 42,
      "max": [
        1.0,
        0.0,
        1.0
      ],
      "min": [
        -1.0,
        0.0,
        -1.0
      ],
      "type": "VEC3"
    },
    {
      "bufferView": 1,
      "componentType": 5126,
      "count": 42,
      "max": [
        0.6249997615814209,
        0.6884398460388184
      ],
      "min": [
        0.375,
        0.3125
      ],
      "type": "VEC2"
    },
    {
      "bufferView": 0,
      "componentType": 5125,
      "count": 120,
      "type": "SCALAR"
    },
    {
      "bufferView": 2,
      "byteOffset": 1008,
      "componentType": 5126,
      "count": 6091,
      "max": [
        0.2676515579223633,
        33.1491813659668,
        8.271541595458984
      ],
      "min": [
        -14.732346534729004,
        0.6614208221435547,
        1.968949317932129
      ],
      "type": "VEC3"
    },
    {
      "bufferView": 2,
      "byteOffset": 74100,
      "componentType": 5126,
      "count": 6091,
      "max": [
        1.0,
        1.0,
        1.0
      ],
      "min": [
        -1.0,
        -1.0,
        -1.0
      ],
      "type": "VEC3"
    },
    {
      "bufferView": 1,
      "byteOffset": 336,
      "componentType": 5126,
      "count": 6091,
      "max": [
        0.9969980716705322,
        1.0
      ],
      "min": [
        0.001990016084164381,
        -7.450580596923828e-08
      ],
      "type": "VEC2"
    },
    {
      "bufferView": 0,
      "byteOffset": 480,
      "componentType": 5125,
      "count": 22515,
      "type": "SCALAR"
    },
    {
      "bufferView": 2,
      "byteOffset": 147192,
      "componentType": 5126,
      "count": 1167,
      "max": [
        -1.064333438873291,
        0.8131424188613892,
        10.25013542175293
      ],
      "min": [
        -10.254804611206055,
        -0.7397637963294983,
        -0.18366241455078125
      ],
      "type": "VEC3"
    },
    {
      "bufferView": 2,
      "byteOffset": 161196,
      "componentType": 5126,
      "count": 1167,
      "max": [
        0.9999997615814209,
        1.0,
        0.9999997615814209
      ],
      "min": [
        -0.9999997615814209,
        -1.0,
        -0.9999998211860657
      ],
      "type": "VEC3"
    },
    {
      "bufferView": 1,
      "byteOffset": 49064,
      "componentType": 5126,
      "count": 1167,
      "max": [
        0.875,
        1.0
      ],
      "min": [
        0.125,
        -7.450580596923828e-08
      ],
      "type": "VEC2"
    },
    {
      "bufferView": 0,
      "byteOffset": 90540,
      "componentType": 5125,
      "count": 4026,
      "type": "SCALAR"
    }
  ],
  "asset": {
    "extras": {
      "author": "JeremyMichael (https://sketchfab.com/JeremyMichael)",
      "license": "CC-BY-4.0 (http://creativecommons.org/licenses/by/4.0/)",
      "source": "https://sketchfab.com/3d-models/manhasset-music-stand-17cff430f0354453b978bbd6d6f65e61",
      "title": "Manhasset Music Stand"
    },
    "generator": "Sketchfab-12.68.0",
    "version": "2.0"
  },
  "bufferViews": [
    {
      "buffer": 0,
      "byteLength": 106644,
      "name": "floatBufferViews",
      "target": 34963
    },
    {
      "buffer": 0,
      "byteLength": 58400,
      "byteOffset": 106644,
      "byteStride": 8,
      "name": "floatBufferViews",
      "target": 34962
    },
    {
      "buffer": 0,
      "byteLength": 175200,
      "byteOffset": 165044,
      "byteStride": 12,
      "name": "floatBufferViews",
      "target": 34962
    }
  ],
  "buffers": [
    {
      "byteLength": 340244,
      "uri": "scene.bin"
    }
  ],
  "images": [
    {
      "uri": "textures/lambert11_baseColor.png"
    },
    {
      "uri": "textures/lambert10_baseColor.jpeg"
    },
    {
      "uri": "textures/lambert9_baseColor.jpeg"
    }
  ],
  "materials": [
    {
      "doubleSided": true,
      "name": "lambert11",
      "pbrMetallicRoughness": {
        "baseColorTexture": {
          "index": 0
        },
        "metallicFactor": 0.0,
        "roughnessFactor": 0.6
      }
    },
    {
      "doubleSided": true,
      "name": "lambert10",
      "pbrMetallicRoughness": {
        "baseColorTexture": {
          "index": 1
        },
        "metallicFactor": 0.0,
        "roughnessFactor": 0.6
      }
    },
    {
      "doubleSided": true,
      "name": "lambert9",
      "pbrMetallicRoughness": {
        "baseColorTexture": {
          "index": 2
        },
        "metallicFactor": 0.0,
        "roughnessFactor": 0.6
      }
    }
  ],
  "meshes": [
    {
      "name": "Music_Stand_full_lambert11_0",
      "primitives": [
        {
          "attributes": {
            "NORMAL": 1,
            "POSITION": 0,
            "TEXCOORD_0": 2
          },
          "indices": 3,
          "material": 0,
          "mode": 4
        }
      ]
    },
    {
      "name": "Music_Stand_full_lambert10_0",
      "primitives": [
        {
          "attributes": {
            "NORMAL": 5,
            "POSITION": 4,
            "TEXCOORD_0": 6
          },
          "indices": 7,
          "material": 1,
          "mode": 4
        }
      ]
    },
    {
      "name": "Music_Stand_full_lambert9_0",
      "primitives": [
        {
          "attributes": {
            "NORMAL": 9,
            "POSITION": 8,
            "TEXCOORD_0": 10
          },
          "indices": 11,
          "material": 2,
          "mode": 4
        }
      ]
    }
  ],
  "nodes": [
    {
      "children": [
        1
      ],
      "matrix": [
        1.0,
        0.0,
        0.0,
        0.0,
        0.0,
        2.220446049250313e-16,
        -1.0,
        0.0,
        0.0,
        1.0,
        2.220446049250313e-16,
        0.0,
        0.0,
        0.0,
        0.0,
        1.0
      ],
      "name": "Sketchfab_model"
    },
    {
      "children": [
        2
      ],
      "matrix": [
        1.0,
        0.0,
        0.0,
        0.0,
        0.0,
        0.0,
        1.0,
        0.0,
        0.0,
        -1.0,
        0.0,
        0.0,
        0.0,
        0.0,
        0.0,
        1.0
      ],
      "name": "fe5dd2494d9e4301a585476f687528fa.fbx"
    },
    {
      "children": [
        3
      ],
      "name": "RootNode"
    },
    {
      "children": [
        4,
        5,
        6
      ],
      "matrix": [
        0.9263827485309445,
        0.0,
        -0.19224108900278103,
        0.0,
        0.0,
        0.9461192488670349,
        0.0,
        0.0,
        0.19224108900278103,
        0.0,
        0.9263827485309445,
        0.0,
        -5.327315330505371,
        0.6975710391998291,
        2.7928895950317383,
        1.0
      ],
      "name": "Music_Stand_full"
    },
    {
      "mesh": 0,
      "name": "Music_Stand_full_lambert11_0"
    },
    {
      "mesh": 1,
      "name": "Music_Stand_full_lambert10_0"
    },
    {
      "mesh": 2,
      "name": "Music_Stand_full_lambert9_0"
    }
  ],
  "samplers": [
    {
      "magFilter": 9729,
      "minFilter": 9987,
      "wrapS": 10497,
      "wrapT": 10497
    }
  ],
  "scene": 0,
  "scenes": [
    {
      "name": "Sketchfab_Scene",
      "nodes": [
        0
      ]
    }
  ],
  "textures": [
    {
      "sampler": 0,
      "source": 0
    },
    {
      "sampler": 0,
      "source": 1
    },
    {
      "sampler": 0,
      "source": 2
    }
  ]
}
