{
	"asset":{
		"generator":"Khronos glTF Blender I/O v3.6.27",
		"version":"2.0"
	},
	"scene":0,
	"scenes":[
		{
			"name":"Scene",
			"nodes":[
				15
			]
		}
	],
	"nodes":[
		{
			"mesh":0,
			"name":"Bevel metal_Bevel material_0"
		},
		{
			"children":[
				0
			],
			"name":"Bevel metal",
			"rotation":[
				-0.70710688829422,
				0,
				0,
				0.7071066498756409
			],
			"scale":[
				99.99999237060547,
				99.99999237060547,
				99.99999237060547
			],
			"translation":[
				0,
				1082.5972900390625,
				0
			]
		},
		{
			"mesh":1,
			"name":"Blade_Blade material_0"
		},
		{
			"children":[
				2
			],
			"name":"Blade",
			"rotation":[
				-0.70710688829422,
				0,
				0,
				0.7071066498756409
			],
			"scale":[
				99.99999237060547,
				99.99999237060547,
				99.99999237060547
			],
			"translation":[
				0,
				1082.5972900390625,
				0
			]
		},
		{
			"name":"Object_7"
		},
		{
			"children":[
				4
			],
			"name":"Camera",
			"rotation":[
				-0.21255725622177124,
				0.9047970175743103,
				-0.08438936620950699,
				0.3592216968536377
			],
			"scale":[
				100.00000762939453,
				100.00000762939453,
				100
			],
			"translation":[
				735.88916015625,
				495.8309326171875,
				692.5790405273438
			]
		},
		{
			"mesh":2,
			"name":"Diamond_Diamond shape material_0"
		},
		{
			"children":[
				6
			],
			"name":"Diamond",
			"rotation":[
				-0.70710688829422,
				0,
				0,
				0.7071066498756409
			],
			"scale":[
				99.99999237060547,
				99.99999237060547,
				99.99999237060547
			],
			"translation":[
				0,
				1082.5972900390625,
				0
			]
		},
		{
			"mesh":3,
			"name":"Handle_Material.001_0"
		},
		{
			"children":[
				8
			],
			"name":"Handle",
			"rotation":[
				-0.70710688829422,
				0,
				0,
				0.7071066498756409
			],
			"scale":[
				99.99999237060547,
				99.99999237060547,
				99.99999237060547
			],
			"translation":[
				0,
				1082.5972900390625,
				0
			]
		},
		{
			"name":"Object_5"
		},
		{
			"children":[
				10
			],
			"name":"Object_4",
			"rotation":[
				0.70710688829422,
				0,
				0,
				0.7071066498756409
			]
		},
		{
			"children":[
				11
			],
			"name":"Light",
			"rotation":[
				0.16907571256160736,
				0.7558803558349609,
				-0.27217134833335876,
				0.570947527885437
			],
			"scale":[
				99.99999237060547,
				99.99999237060547,
				100
			],
			"translation":[
				407.6245422363281,
				590.38623046875,
				-100.5453872680664
			]
		},
		{
			"children":[
				1,
				3,
				5,
				7,
				9,
				12
			],
			"name":"RootNode"
		},
		{
			"children":[
				13
			],
			"name":"560d178694f8436b941dee6f29fd2ae7.fbx",
			"rotation":[
				0.70710688829422,
				0,
				0,
				0.7071066498756409
			]
		},
		{
			"children":[
				14
			],
			"name":"Sketchfab_model",
			"rotation":[
				-0.70710688829422,
				0,
				0,
				0.7071066498756409
			],
			"scale":[
				0.0010000000474974513,
				0.0010000001639127731,
				0.0010000001639127731
			]
		}
	],
	"materials":[
		{
			"doubleSided":true,
			"name":"Bevel_material",
			"pbrMetallicRoughness":{
				"roughnessFactor":0.5
			}
		},
		{
			"doubleSided":true,
			"name":"Blade_material",
			"pbrMetallicRoughness":{
				"baseColorFactor":[
					0,
					1,
					0.00724537018686533,
					1
				],
				"roughnessFactor":0.5732463002204895
			}
		},
		{
			"doubleSided":true,
			"name":"Diamond_shape_material",
			"pbrMetallicRoughness":{
				"baseColorFactor":[
					0.0029088701121509075,
					0.800000011920929,
					0,
					1
				],
				"roughnessFactor":0.4000000059604645
			}
		},
		{
			"doubleSided":true,
			"name":"Material.001",
			"pbrMetallicRoughness":{
				"baseColorFactor":[
					0.08773340284824371,
					0.025082699954509735,
					0,
					1
				],
				"metallicFactor":0
			}
		}
	],
	"meshes":[
		{
			"name":"Bevel metal_Bevel material_0",
			"primitives":[
				{
					"attributes":{
						"POSITION":0,
						"NORMAL":1,
						"TEXCOORD_0":2
					},
					"indices":3,
					"material":0
				}
			]
		},
		{
			"name":"Blade_Blade material_0",
			"primitives":[
				{
					"attributes":{
						"POSITION":4,
						"NORMAL":5,
						"TEXCOORD_0":6
					},
					"indices":7,
					"material":1
				}
			]
		},
		{
			"name":"Diamond_Diamond shape material_0",
			"primitives":[
				{
					"attributes":{
						"POSITION":8,
						"NORMAL":9,
						"TEXCOORD_0":10
					},
					"indices":11,
					"material":2
				}
			]
		},
		{
			"name":"Handle_Material.001_0",
			"primitives":[
				{
					"attributes":{
						"POSITION":12,
						"NORMAL":13,
						"TEXCOORD_0":14
					},
					"indices":15,
					"material":3
				}
			]
		}
	],
	"accessors":[
		{
			"bufferView":0,
			"componentType":5126,
			"count":128,
			"max":[
				0.7441462874412537,
				0.7433066964149475,
				-3.1340694427490234
			],
			"min":[
				-0.7358489632606506,
				-0.736688494682312,
				-7.24875020980835
			],
			"type":"VEC3"
		},
		{
			"bufferView":1,
			"componentType":5126,
			"count":128,
			"type":"VEC3"
		},
		{
			"bufferView":2,
			"componentType":5126,
			"count":128,
			"type":"VEC2"
		},
		{
			"bufferView":3,
			"componentType":5123,
			"count":192,
			"type":"SCALAR"
		},
		{
			"bufferView":4,
			"componentType":5126,
			"count":186,
			"max":[
				1.883018970489502,
				1.882179617881775,
				12.517133712768555
			],
			"min":[
				-1.8747215270996094,
				-1.8755608797073364,
				-3.1340694427490234
			],
			"type":"VEC3"
		},
		{
			"bufferView":5,
			"componentType":5126,
			"count":186,
			"type":"VEC3"
		},
		{
			"bufferView":6,
			"componentType":5126,
			"count":186,
			"type":"VEC2"
		},
		{
			"bufferView":7,
			"componentType":5123,
			"count":270,
			"type":"SCALAR"
		},
		{
			"bufferView":8,
			"componentType":5126,
			"count":76,
			"max":[
				1.3947800397872925,
				1.3939405679702759,
				-7.24875020980835
			],
			"min":[
				-1.386482834815979,
				-1.3873225450515747,
				-9.445866584777832
			],
			"type":"VEC3"
		},
		{
			"bufferView":9,
			"componentType":5126,
			"count":76,
			"type":"VEC3"
		},
		{
			"bufferView":10,
			"componentType":5126,
			"count":76,
			"type":"VEC2"
		},
		{
			"bufferView":11,
			"componentType":5123,
			"count":120,
			"type":"SCALAR"
		},
		{
			"bufferView":12,
			"componentType":5126,
			"count":32,
			"max":[
				0.6401969194412231,
				0.6393573880195618,
				-3.456205368041992
			],
			"min":[
				-0.6318995952606201,
				-0.6327391266822815,
				-7.060110569000244
			],
			"type":"VEC3"
		},
		{
			"bufferView":13,
			"componentType":5126,
			"count":32,
			"type":"VEC3"
		},
		{
			"bufferView":14,
			"componentType":5126,
			"count":32,
			"type":"VEC2"
		},
		{
			"bufferView":15,
			"componentType":5123,
			"count":48,
			"type":"SCALAR"
		}
	],
	"bufferViews":[
		{
			"buffer":0,
			"byteLength":1536,
			"byteOffset":0,
			"target":34962
		},
		{
			"buffer":0,
			"byteLength":1536,
			"byteOffset":1536,
			"target":34962
		},
		{
			"buffer":0,
			"byteLength":1024,
			"byteOffset":3072,
			"target":34962
		},
		{
			"buffer":0,
			"byteLength":384,
			"byteOffset":4096,
			"target":34963
		},
		{
			"buffer":0,
			"byteLength":2232,
			"byteOffset":4480,
			"target":34962
		},
		{
			"buffer":0,
			"byteLength":2232,
			"byteOffset":6712,
			"target":34962
		},
		{
			"buffer":0,
			"byteLength":1488,
			"byteOffset":8944,
			"target":34962
		},
		{
			"buffer":0,
			"byteLength":540,
			"byteOffset":10432,
			"target":34963
		},
		{
			"buffer":0,
			"byteLength":912,
			"byteOffset":10972,
			"target":34962
		},
		{
			"buffer":0,
			"byteLength":912,
			"byteOffset":11884,
			"target":34962
		},
		{
			"buffer":0,
			"byteLength":608,
			"byteOffset":12796,
			"target":34962
		},
		{
			"buffer":0,
			"byteLength":240,
			"byteOffset":13404,
			"target":34963
		},
		{
			"buffer":0,
			"byteLength":384,
			"byteOffset":13644,
			"target":34962
		},
		{
			"buffer":0,
			"byteLength":384,
			"byteOffset":14028,
			"target":34962
		},
		{
			"buffer":0,
			"byteLength":256,
			"byteOffset":14412,
			"target":34962
		},
		{
			"buffer":0,
			"byteLength":96,
			"byteOffset":14668,
			"target":34963
		}
	],
	"buffers":[
		{
			"byteLength":14764,
			"uri":"scene.bin"
		}
	]
}
