{
	"asset":{
		"generator":"Khronos glTF Blender I/O v3.6.27",
		"version":"2.0"
	},
	"scene":0,
	"scenes":[
		{
			"name":"Scene",
			"nodes":[
				5
			]
		}
	],
	"nodes":[
		{
			"mesh":0,
			"name":"Object_2",
			"translation":[
				0,
				-4,
				0
			]
		},
		{
			"mesh":1,
			"name":"Object_3",
			"translation":[
				0,
				-4,
				0
			]
		},
		{
			"mesh":2,
			"name":"Object_4",
			"translation":[
				0,
				-4,
				0
			]
		},
		{
			"mesh":3,
			"name":"Object_5",
			"translation":[
				0,
				-4,
				0
			]
		},
		{
			"children":[
				0,
				1,
				2,
				3
			],
			"name":"sketchfab.obj.cleaner.materialmerger.gles"
		},
		{
			"children":[
				4
			],
			"name":"Sketchfab_model",
			"rotation":[
				-0.70710688829422,
				0,
				0,
				0.7071066498756409
			]
		}
	],
	"materials":[
		{
			"doubleSided":true,
			"emissiveFactor":[
				0.8075230121612549,
				0.8075230121612549,
				0.8075230121612549
			],
			"emissiveTexture":{
				"index":0
			},
			"name":"aiStandardSurface1SG",
			"pbrMetallicRoughness":{
				"baseColorTexture":{
					"index":1
				},
				"metallicFactor":0,
				"roughnessFactor":0.09234414994716644
			}
		},
		{
			"doubleSided":true,
			"emissiveFactor":[
				1,
				1,
				1
			],
			"emissiveTexture":{
				"index":2
			},
			"name":"aiStandardSurface2SG",
			"pbrMetallicRoughness":{
				"baseColorTexture":{
					"index":3
				},
				"metallicFactor":0
			}
		},
		{
			"doubleSided":true,
			"emissiveFactor":[
				1,
				1,
				1
			],
			"emissiveTexture":{
				"index":4
			},
			"name":"aiStandardSurface3SG",
			"pbrMetallicRoughness":{
				"baseColorTexture":{
					"index":5
				},
				"metallicFactor":0
			}
		},
		{
			"doubleSided":true,
			"emissiveFactor":[
				0.3211091458797455,
				0.3211091458797455,
				0.3211091458797455
			],
			"emissiveTexture":{
				"index":6
			},
			"name":"aiStandardSurface4SG",
			"pbrMetallicRoughness":{
				"baseColorTexture":{
					"index":7
				},
				"metallicFactor":0
			}
		}
	],
	"meshes":[
		{
			"name":"Object_0",
			"primitives":[
				{
					"attributes":{
						"POSITION":0,
						"NORMAL":1,
						"TEXCOORD_0":2
					},
					"indices":3,
					"material":0
				}
			]
		},
		{
			"name":"Object_1",
			"primitives":[
				{
					"attributes":{
						"POSITION":4,
						"NORMAL":5,
						"TEXCOORD_0":6
					},
					"indices":7,
					"material":1
				}
			]
		},
		{
			"name":"Object_2",
			"primitives":[
				{
					"attributes":{
						"POSITION":8,
						"NORMAL":9,
						"TEXCOORD_0":10
					},
					"indices":11,
					"material":2
				}
			]
		},
		{
			"name":"Object_3",
			"primitives":[
				{
					"attributes":{
						"POSITION":12,
						"NORMAL":13,
						"TEXCOORD_0":14
					},
					"indices":15,
					"material":3
				}
			]
		}
	],
	"textures":[
		{
			"sampler":0,
			"source":0
		},
		{
			"sampler":0,
			"source":0
		},
		{
			"sampler":0,
			"source":1
		},
		{
			"sampler":0,
			"source":1
		},
		{
			"sampler":0,
			"source":2
		},
		{
			"sampler":0,
			"source":2
		},
		{
			"sampler":0,
			"source":3
		},
		{
			"sampler":0,
			"source":3
		}
	],
	"images":[
		{
			"mimeType":"image/png",
			"name":"aiStandardSurface1SG_baseColor",
			"uri":"aiStandardSurface1SG_baseColor.png"
		},
		{
			"mimeType":"image/png",
			"name":"aiStandardSurface2SG_baseColor",
			"uri":"aiStandardSurface2SG_baseColor.png"
		},
		{
			"mimeType":"image/png",
			"name":"aiStandardSurface3SG_baseColor",
			"uri":"aiStandardSurface3SG_baseColor.png"
		},
		{
			"mimeType":"image/png",
			"name":"aiStandardSurface4SG_baseColor",
			"uri":"aiStandardSurface4SG_baseColor.png"
		}
	],
	"accessors":[
		{
			"bufferView":0,
			"componentType":5126,
			"count":768,
			"max":[
				0.7617030143737793,
				5.297404766082764,
				4.733170032501221
			],
			"min":[
				-2.0566370487213135,
				2.639611005783081,
				3.9416120052337646
			],
			"type":"VEC3"
		},
		{
			"bufferView":1,
			"componentType":5126,
			"count":768,
			"type":"VEC3"
		},
		{
			"bufferView":2,
			"componentType":5126,
			"count":768,
			"type":"VEC2"
		},
		{
			"bufferView":3,
			"componentType":5123,
			"count":1116,
			"type":"SCALAR"
		},
		{
			"bufferView":4,
			"componentType":5126,
			"count":39,
			"max":[
				-0.22326600551605225,
				4.273539066314697,
				4.252853870391846
			],
			"min":[
				-0.9858160018920898,
				3.5109899044036865,
				4.0572190284729
			],
			"type":"VEC3"
		},
		{
			"bufferView":5,
			"componentType":5126,
			"count":39,
			"type":"VEC3"
		},
		{
			"bufferView":6,
			"componentType":5126,
			"count":39,
			"type":"VEC2"
		},
		{
			"bufferView":7,
			"componentType":5123,
			"count":144,
			"type":"SCALAR"
		},
		{
			"bufferView":8,
			"componentType":5126,
			"count":68,
			"max":[
				0.1059970036149025,
				4.051490783691406,
				4.1141037940979
			],
			"min":[
				-0.9041140079498291,
				3.767720937728882,
				-0.2568869888782501
			],
			"type":"VEC3"
		},
		{
			"bufferView":9,
			"componentType":5126,
			"count":68,
			"type":"VEC3"
		},
		{
			"bufferView":10,
			"componentType":5126,
			"count":68,
			"type":"VEC2"
		},
		{
			"bufferView":11,
			"componentType":5123,
			"count":108,
			"type":"SCALAR"
		},
		{
			"bufferView":12,
			"componentType":5126,
			"count":118,
			"max":[
				0.9713709950447083,
				4.113728046417236,
				3.4972989559173584
			],
			"min":[
				-1.5446900129318237,
				3.1321890354156494,
				1.0369720458984375
			],
			"type":"VEC3"
		},
		{
			"bufferView":13,
			"componentType":5126,
			"count":118,
			"type":"VEC3"
		},
		{
			"bufferView":14,
			"componentType":5126,
			"count":118,
			"type":"VEC2"
		},
		{
			"bufferView":15,
			"componentType":5123,
			"count":216,
			"type":"SCALAR"
		}
	],
	"bufferViews":[
		{
			"buffer":0,
			"byteLength":9216,
			"byteOffset":0,
			"target":34962
		},
		{
			"buffer":0,
			"byteLength":9216,
			"byteOffset":9216,
			"target":34962
		},
		{
			"buffer":0,
			"byteLength":6144,
			"byteOffset":18432,
			"target":34962
		},
		{
			"buffer":0,
			"byteLength":2232,
			"byteOffset":24576,
			"target":34963
		},
		{
			"buffer":0,
			"byteLength":468,
			"byteOffset":26808,
			"target":34962
		},
		{
			"buffer":0,
			"byteLength":468,
			"byteOffset":27276,
			"target":34962
		},
		{
			"buffer":0,
			"byteLength":312,
			"byteOffset":27744,
			"target":34962
		},
		{
			"buffer":0,
			"byteLength":288,
			"byteOffset":28056,
			"target":34963
		},
		{
			"buffer":0,
			"byteLength":816,
			"byteOffset":28344,
			"target":34962
		},
		{
			"buffer":0,
			"byteLength":816,
			"byteOffset":29160,
			"target":34962
		},
		{
			"buffer":0,
			"byteLength":544,
			"byteOffset":29976,
			"target":34962
		},
		{
			"buffer":0,
			"byteLength":216,
			"byteOffset":30520,
			"target":34963
		},
		{
			"buffer":0,
			"byteLength":1416,
			"byteOffset":30736,
			"target":34962
		},
		{
			"buffer":0,
			"byteLength":1416,
			"byteOffset":32152,
			"target":34962
		},
		{
			"buffer":0,
			"byteLength":944,
			"byteOffset":33568,
			"target":34962
		},
		{
			"buffer":0,
			"byteLength":432,
			"byteOffset":34512,
			"target":34963
		}
	],
	"samplers":[
		{
			"magFilter":9729,
			"minFilter":9987
		}
	],
	"buffers":[
		{
			"byteLength":34944,
			"uri":"scene.bin"
		}
	]
}
