{
  "accessors": [
    {
      "bufferView": 2,
      "componentType": 5126,
      "count": 192,
      "max": [
        33.14453125,
        4.89453125,
        94.22578430175781
      ],
      "min": [
        -33.1796875,
        -6.484375,
        48.10546875
      ],
      "type": "VEC3"
    },
    {
      "bufferView": 2,
      "byteOffset": 2304,
      "componentType": 5126,
      "count": 192,
      "max": [
        0.9989517331123352,
        0.9994134306907654,
        0.9695121645927429
      ],
      "min": [
        -0.99895179271698,
        -0.9975706934928894,
        -0.8597384691238403
      ],
      "type": "VEC3"
    },
    {
      "bufferView": 1,
      "componentType": 5126,
      "count": 192,
      "max": [
        0.9882352948188782,
        1.0
      ],
      "min": [
        0.0,
        0.003921568859368563
      ],
      "type": "VEC2"
    },
    {
      "bufferView": 0,
      "componentType": 5125,
      "count": 834,
      "type": "SCALAR"
    },
    {
      "bufferView": 2,
      "byteOffset": 4608,
      "componentType": 5126,
      "count": 103,
      "max": [
        29.0859375,
        7.87890625,
        83.40625
      ],
      "min": [
        -29.0859375,
        -6.453125,
        54.12890625
      ],
      "type": "VEC3"
    },
    {
      "bufferView": 2,
      "byteOffset": 5844,
      "componentType": 5126,
      "count": 103,
      "max": [
        0.996120810508728,
        0.9910198450088501,
        0.9023277759552002
      ],
      "min": [
        -0.9960326552391052,
        -0.9273073673248291,
        -0.9942610263824463
      ],
      "type": "VEC3"
    },
    {
      "bufferView": 1,
      "byteOffset": 1536,
      "componentType": 5126,
      "count": 103,
      "max": [
        0.9529411792755127,
        0.9372549057006836
      ],
      "min": [
        0.003921568859368563,
        0.007843137718737125
      ],
      "type": "VEC2"
    },
    {
      "bufferView": 0,
      "byteOffset": 3336,
      "componentType": 5125,
      "count": 372,
      "type": "SCALAR"
    },
    {
      "bufferView": 2,
      "byteOffset": 7080,
      "componentType": 5126,
      "count": 113,
      "max": [
        13.5078125,
        6.2578125,
        57.91796875
      ],
      "min": [
        -13.5078125,
        -9.1875,
        0.15234375
      ],
      "type": "VEC3"
    },
    {
      "bufferView": 2,
      "byteOffset": 8436,
      "componentType": 5126,
      "count": 113,
      "max": [
        0.997422456741333,
        0.9137371182441711,
        0.5318699479103088
      ],
      "min": [
        -0.997422456741333,
        -0.9674843549728394,
        -0.936126708984375
      ],
      "type": "VEC3"
    },
    {
      "bufferView": 1,
      "byteOffset": 2360,
      "componentType": 5126,
      "count": 113,
      "max": [
        1.0,
        1.0
      ],
      "min": [
        0.0117647061124444,
        0.0
      ],
      "type": "VEC2"
    },
    {
      "bufferView": 0,
      "byteOffset": 4824,
      "componentType": 5125,
      "count": 381,
      "type": "SCALAR"
    },
    {
      "bufferView": 2,
      "byteOffset": 9792,
      "componentType": 5126,
      "count": 29,
      "max": [
        7.76953125,
        4.6015625,
        84.34765625
      ],
      "min": [
        -7.76953125,
        -7.26171875,
        57.8046875
      ],
      "type": "VEC3"
    },
    {
      "bufferView": 2,
      "byteOffset": 10140,
      "componentType": 5126,
      "count": 29,
      "max": [
        0.9989517331123352,
        0.8157555460929871,
        0.9023277759552002
      ],
      "min": [
        -0.99895179271698,
        -0.9656375646591187,
        -0.26859137415885925
      ],
      "type": "VEC3"
    },
    {
      "bufferView": 1,
      "byteOffset": 3264,
      "componentType": 5126,
      "count": 29,
      "max": [
        0.9882352948188782,
        0.9960784316062927
      ],
      "min": [
        0.0,
        0.007843137718737125
      ],
      "type": "VEC2"
    },
    {
      "bufferView": 0,
      "byteOffset": 6348,
      "componentType": 5125,
      "count": 81,
      "type": "SCALAR"
    },
    {
      "bufferView": 2,
      "byteOffset": 10488,
      "componentType": 5126,
      "count": 40,
      "max": [
        13.24609375,
        9.96484375,
        86.27734375
      ],
      "min": [
        -13.37109375,
        -6.80078125,
        15.609375
      ],
      "type": "VEC3"
    },
    {
      "bufferView": 2,
      "byteOffset": 10968,
      "componentType": 5126,
      "count": 40,
      "max": [
        0.9986317753791809,
        0.9963216781616211,
        0.7957071661949158
      ],
      "min": [
        -0.9985752701759338,
        -0.9273073673248291,
        -0.2694348990917206
      ],
      "type": "VEC3"
    },
    {
      "bufferView": 1,
      "byteOffset": 3496,
      "componentType": 5126,
      "count": 40,
      "max": [
        0.9019607901573181,
        1.0
      ],
      "min": [
        0.003921568859368563,
        0.2980392277240753
      ],
      "type": "VEC2"
    },
    {
      "bufferView": 0,
      "byteOffset": 6672,
      "componentType": 5125,
      "count": 99,
      "type": "SCALAR"
    },
    {
      "bufferView": 2,
      "byteOffset": 11448,
      "componentType": 5126,
      "count": 3,
      "max": [
        33.3671875,
        1.609375,
        48.51953125
      ],
      "min": [
        31.94921875,
        -1.4765625,
        46.9921875
      ],
      "type": "VEC3"
    },
    {
      "bufferView": 2,
      "byteOffset": 11484,
      "componentType": 5126,
      "count": 3,
      "max": [
        0.7311222553253174,
        -0.0034543678630143404,
        0.6822377443313599
      ],
      "min": [
        0.7311222553253174,
        -0.003454368095844984,
        0.6822377443313599
      ],
      "type": "VEC3"
    },
    {
      "bufferView": 1,
      "byteOffset": 3816,
      "componentType": 5126,
      "count": 3,
      "max": [
        0.0,
        1.0
      ],
      "min": [
        0.0,
        1.0
      ],
      "type": "VEC2"
    },
    {
      "bufferView": 0,
      "byteOffset": 7068,
      "componentType": 5125,
      "count": 3,
      "type": "SCALAR"
    }
  ],
  "asset": {
    "extras": {
      "author": "Cynass (https://sketchfab.com/cynass)",
      "license": "CC-BY-4.0 (http://creativecommons.org/licenses/by/4.0/)",
      "source": "https://sketchfab.com/3d-models/ps1psx-officer-k-bladerunner-d5f7a8bbbedc4555b7d8f5beb7a1020b",
      "title": "[PS1/PSX] Officer K- Bladerunner"
    },
    "generator": "Sketchfab-14.58.0",
    "version": "2.0"
  },
  "bufferViews": [
    {
      "buffer": 0,
      "byteLength": 7080,
      "name": "floatBufferViews",
      "target": 34963
    },
    {
      "buffer": 0,
      "byteLength": 3840,
      "byteOffset": 7080,
      "byteStride": 8,
      "name": "floatBufferViews",
      "target": 34962
    },
    {
      "buffer": 0,
      "byteLength": 11520,
      "byteOffset": 10920,
      "byteStride": 12,
      "name": "floatBufferViews",
      "target": 34962
    }
  ],
  "buffers": [
    {
      "byteLength": 22440,
      "uri": "scene.bin"
    }
  ],
  "extensionsUsed": [
    "KHR_materials_unlit"
  ],
  "images": [
    {
      "uri": "textures/face_and_hands_baseColor.png"
    },
    {
      "uri": "textures/jacket_baseColor.png"
    },
    {
      "uri": "textures/pants_baseColor.png"
    },
    {
      "uri": "textures/shirt_baseColor.png"
    }
  ],
  "materials": [
    {
      "doubleSided": true,
      "extensions": {
        "KHR_materials_unlit": {}
      },
      "name": "face_and_hands",
      "pbrMetallicRoughness": {
        "baseColorTexture": {
          "index": 0
        },
        "metallicFactor": 0.0
      }
    },
    {
      "doubleSided": true,
      "extensions": {
        "KHR_materials_unlit": {}
      },
      "name": "jacket",
      "pbrMetallicRoughness": {
        "baseColorTexture": {
          "index": 1
        },
        "metallicFactor": 0.0
      }
    },
    {
      "doubleSided": true,
      "extensions": {
        "KHR_materials_unlit": {}
      },
      "name": "pants",
      "pbrMetallicRoughness": {
        "baseColorTexture": {
          "index": 2
        },
        "metallicFactor": 0.0
      }
    },
    {
      "doubleSided": true,
      "extensions": {
        "KHR_materials_unlit": {}
      },
      "name": "shirt",
      "pbrMetallicRoughness": {
        "baseColorTexture": {
          "index": 3
        },
        "metallicFactor": 0.0
      }
    },
    {
      "doubleSided": true,
      "extensions": {
        "KHR_materials_unlit": {}
      },
      "name": "jacket_2",
      "pbrMetallicRoughness": {
        "baseColorTexture": {
          "index": 1
        },
        "metallicFactor": 0.0
      }
    },
    {
      "doubleSided": true,
      "extensions": {
        "KHR_materials_unlit": {}
      },
      "name": "WEAP000007",
      "pbrMetallicRoughness": {
        "baseColorFactor": [
          0.176471,
          0.576471,
          0.498039,
          1.0
        ],
        "metallicFactor": 0.0
      }
    }
  ],
  "meshes": [
    {
      "name": "officerk_face and hands_0",
      "primitives": [
        {
          "attributes": {
            "NORMAL": 1,
            "POSITION": 0,
            "TEXCOORD_0": 2
          },
          "indices": 3,
          "material": 0,
          "mode": 4
        }
      ]
    },
    {
      "name": "officerk_jacket_0",
      "primitives": [
        {
          "attributes": {
            "NORMAL": 5,
            "POSITION": 4,
            "TEXCOORD_0": 6
          },
          "indices": 7,
          "material": 1,
          "mode": 4
        }
      ]
    },
    {
      "name": "officerk_pants_0",
      "primitives": [
        {
          "attributes": {
            "NORMAL": 9,
            "POSITION": 8,
            "TEXCOORD_0": 10
          },
          "indices": 11,
          "material": 2,
          "mode": 4
        }
      ]
    },
    {
      "name": "officerk_shirt_0",
      "primitives": [
        {
          "attributes": {
            "NORMAL": 13,
            "POSITION": 12,
            "TEXCOORD_0": 14
          },
          "indices": 15,
          "material": 3,
          "mode": 4
        }
      ]
    },
    {
      "name": "officerk_jacket 2_0",
      "primitives": [
        {
          "attributes": {
            "NORMAL": 17,
            "POSITION": 16,
            "TEXCOORD_0": 18
          },
          "indices": 19,
          "material": 4,
          "mode": 4
        }
      ]
    },
    {
      "name": "officerk_WEAP000007_0",
      "primitives": [
        {
          "attributes": {
            "NORMAL": 21,
            "POSITION": 20,
            "TEXCOORD_0": 22
          },
          "indices": 23,
          "material": 5,
          "mode": 4
        }
      ]
    }
  ],
  "nodes": [
    {
      "children": [
        1
      ],
      "matrix": [
        1.0,
        0.0,
        0.0,
        0.0,
        0.0,
        2.220446049250313e-16,
        -1.0,
        0.0,
        0.0,
        1.0,
        2.220446049250313e-16,
        0.0,
        0.0,
        0.0,
        0.0,
        1.0
      ],
      "name": "Sketchfab_model"
    },
    {
      "children": [
        2
      ],
      "matrix": [
        0.009999999776482582,
        0.0,
        0.0,
        0.0,
        0.0,
        0.0,
        0.009999999776482582,
        0.0,
        0.0,
        -0.009999999776482582,
        0.0,
        0.0,
        0.0,
        0.0,
        0.0,
        1.0
      ],
      "name": "officerk.fbx"
    },
    {
      "children": [
        3
      ],
      "name": "RootNode"
    },
    {
      "children": [
        4,
        5,
        6,
        7,
        8,
        9
      ],
      "matrix": [
        10.0,
        0.0,
        0.0,
        0.0,
        0.0,
        -1.6292067939183141e-06,
        -9.999999999999869,
        0.0,
        0.0,
        9.999999999999869,
        -1.6292067939183141e-06,
        0.0,
        0.0,
        0.0,
        0.0,
        1.0
      ],
      "name": "officerk"
    },
    {
      "mesh": 0,
      "name": "officerk_face and hands_0"
    },
    {
      "mesh": 1,
      "name": "officerk_jacket_0"
    },
    {
      "mesh": 2,
      "name": "officerk_pants_0"
    },
    {
      "mesh": 3,
      "name": "officerk_shirt_0"
    },
    {
      "mesh": 4,
      "name": "officerk_jacket 2_0"
    },
    {
      "mesh": 5,
      "name": "officerk_WEAP000007_0"
    }
  ],
  "samplers": [
    {
      "magFilter": 9729,
      "minFilter": 9987,
      "wrapS": 10497,
      "wrapT": 10497
    }
  ],
  "scene": 0,
  "scenes": [
    {
      "name": "Sketchfab_Scene",
      "nodes": [
        0
      ]
    }
  ],
  "textures": [
    {
      "sampler": 0,
      "source": 0
    },
    {
      "sampler": 0,
      "source": 1
    },
    {
      "sampler": 0,
      "source": 2
    },
    {
      "sampler": 0,
      "source": 3
    }
  ]
}
