{
  "accessors": [
    {
      "bufferView": 2,
      "componentType": 5126,
      "count": 336,
      "max": [
        0.6495479941368103,
        -0.004227549768984318,
        0.6495479941368103
      ],
      "min": [
        -0.6495479941368103,
        -0.4130200147628784,
        -0.6495490074157715
      ],
      "type": "VEC3"
    },
    {
      "bufferView": 2,
      "byteOffset": 4032,
      "componentType": 5126,
      "count": 336,
      "max": [
        1.0,
        1.0,
        1.0
      ],
      "min": [
        -1.0,
        -1.0,
        -1.0
      ],
      "type": "VEC3"
    },
    {
      "bufferView": 3,
      "componentType": 5126,
      "count": 336,
      "max": [
        0.804076075553894,
        1.0,
        0.6084344387054443,
        1.0
      ],
      "min": [
        0.0,
        -1.0,
        -0.6686602830886841,
        1.0
      ],
      "type": "VEC4"
    },
    {
      "bufferView": 1,
      "componentType": 5126,
      "count": 336,
      "max": [
        0.9995009899139404,
        0.9876260161399841
      ],
      "min": [
        0.0005000000237487257,
        0.0004939999780617654
      ],
      "type": "VEC2"
    },
    {
      "bufferView": 0,
      "componentType": 5125,
      "count": 960,
      "type": "SCALAR"
    },
    {
      "bufferView": 2,
      "byteOffset": 8064,
      "componentType": 5126,
      "count": 436,
      "max": [
        0.09625879675149918,
        1.0,
        0.09625879675149918
      ],
      "min": [
        -0.09625879675149918,
        0.5393249988555908,
        -0.09625879675149918
      ],
      "type": "VEC3"
    },
    {
      "bufferView": 2,
      "byteOffset": 13296,
      "componentType": 5126,
      "count": 436,
      "max": [
        1.0,
        1.0,
        1.0
      ],
      "min": [
        -1.0,
        -1.0,
        -1.0
      ],
      "type": "VEC3"
    },
    {
      "bufferView": 3,
      "byteOffset": 5376,
      "componentType": 5126,
      "count": 436,
      "max": [
        1.0,
        1.0,
        1.0,
        1.0
      ],
      "min": [
        -0.004924054257571697,
        -1.0,
        -1.0,
        1.0
      ],
      "type": "VEC4"
    },
    {
      "bufferView": 1,
      "byteOffset": 2688,
      "componentType": 5126,
      "count": 436,
      "max": [
        0.9843339920043945,
        0.9994999766349792
      ],
      "min": [
        0.0004920000210404396,
        0.0004990000161342323
      ],
      "type": "VEC2"
    },
    {
      "bufferView": 0,
      "byteOffset": 3840,
      "componentType": 5125,
      "count": 840,
      "type": "SCALAR"
    },
    {
      "bufferView": 2,
      "byteOffset": 18528,
      "componentType": 5126,
      "count": 2148,
      "max": [
        0.6441929936408997,
        0.23643100261688232,
        0.7374410033226013
      ],
      "min": [
        -0.6425759792327881,
        -0.16687899827957153,
        -0.7321040034294128
      ],
      "type": "VEC3"
    },
    {
      "bufferView": 2,
      "byteOffset": 44304,
      "componentType": 5126,
      "count": 2148,
      "max": [
        0.9967393279075623,
        0.9998812675476074,
        0.9996097683906555
      ],
      "min": [
        -0.9967403411865234,
        -1.0,
        -0.999609649181366
      ],
      "type": "VEC3"
    },
    {
      "bufferView": 3,
      "byteOffset": 12352,
      "componentType": 5126,
      "count": 2148,
      "max": [
        1.0,
        0.9944018721580505,
        1.0,
        1.0
      ],
      "min": [
        -0.99119633436203,
        -0.9944436550140381,
        -0.9999789595603943,
        -1.0
      ],
      "type": "VEC4"
    },
    {
      "bufferView": 1,
      "byteOffset": 6176,
      "componentType": 5126,
      "count": 2148,
      "max": [
        0.9303889870643616,
        0.9980080127716064
      ],
      "min": [
        0.0018570000538602471,
        0.0019920000340789557
      ],
      "type": "VEC2"
    },
    {
      "bufferView": 0,
      "byteOffset": 7200,
      "componentType": 5125,
      "count": 4320,
      "type": "SCALAR"
    },
    {
      "bufferView": 2,
      "byteOffset": 70080,
      "componentType": 5126,
      "count": 3948,
      "max": [
        0.6853500008583069,
        0.5749390125274658,
        0.7793880105018616
      ],
      "min": [
        -0.6853500008583069,
        -0.8015249967575073,
        -0.7793880105018616
      ],
      "type": "VEC3"
    },
    {
      "bufferView": 2,
      "byteOffset": 117456,
      "componentType": 5126,
      "count": 3948,
      "max": [
        1.0,
        1.0,
        1.0
      ],
      "min": [
        -1.0,
        -1.0,
        -1.0
      ],
      "type": "VEC3"
    },
    {
      "bufferView": 3,
      "byteOffset": 46720,
      "componentType": 5126,
      "count": 3948,
      "max": [
        1.0,
        1.0,
        0.9992161393165588,
        1.0
      ],
      "min": [
        -0.8777680397033691,
        -1.0,
        -0.982724666595459,
        -1.0
      ],
      "type": "VEC4"
    },
    {
      "bufferView": 1,
      "byteOffset": 23360,
      "componentType": 5126,
      "count": 3948,
      "max": [
        0.9994999766349792,
        0.9550139904022217
      ],
      "min": [
        0.0004990000161342323,
        0.0004769999941345304
      ],
      "type": "VEC2"
    },
    {
      "bufferView": 0,
      "byteOffset": 24480,
      "componentType": 5125,
      "count": 10368,
      "type": "SCALAR"
    },
    {
      "bufferView": 2,
      "byteOffset": 164832,
      "componentType": 5126,
      "count": 146,
      "max": [
        0.1284569948911667,
        -0.7235609889030457,
        0.1284569948911667
      ],
      "min": [
        -0.1284569948911667,
        -1.0,
        -0.1284569948911667
      ],
      "type": "VEC3"
    },
    {
      "bufferView": 2,
      "byteOffset": 166584,
      "componentType": 5126,
      "count": 146,
      "max": [
        0.999181866645813,
        1.0,
        0.999181866645813
      ],
      "min": [
        -0.999181866645813,
        -1.0,
        -0.999181866645813
      ],
      "type": "VEC3"
    },
    {
      "bufferView": 3,
      "byteOffset": 109888,
      "componentType": 5126,
      "count": 146,
      "max": [
        0.9985746145248413,
        1.0,
        0.9985741376876831,
        1.0
      ],
      "min": [
        -0.9985744953155518,
        -1.0,
        -0.9985746741294861,
        1.0
      ],
      "type": "VEC4"
    },
    {
      "bufferView": 1,
      "byteOffset": 54944,
      "componentType": 5126,
      "count": 146,
      "max": [
        0.9496740102767944,
        0.9995009899139404
      ],
      "min": [
        0.00047500000800937414,
        0.0004990000161342323
      ],
      "type": "VEC2"
    },
    {
      "bufferView": 0,
      "byteOffset": 65952,
      "componentType": 5125,
      "count": 336,
      "type": "SCALAR"
    }
  ],
  "asset": {
    "extras": {
      "author": "ToneySK (https://sketchfab.com/ToneySK)",
      "license": "CC-BY-4.0 (http://creativecommons.org/licenses/by/4.0/)",
      "source": "https://sketchfab.com/3d-models/chandelier-2a46291356fd432292223852da25c071",
      "title": "chandelier"
    },
    "generator": "Sketchfab-12.66.0",
    "version": "2.0"
  },
  "bufferViews": [
    {
      "buffer": 0,
      "byteLength": 67296,
      "name": "floatBufferViews",
      "target": 34963
    },
    {
      "buffer": 0,
      "byteLength": 56112,
      "byteOffset": 67296,
      "byteStride": 8,
      "name": "floatBufferViews",
      "target": 34962
    },
    {
      "buffer": 0,
      "byteLength": 168336,
      "byteOffset": 123408,
      "byteStride": 12,
      "name": "floatBufferViews",
      "target": 34962
    },
    {
      "buffer": 0,
      "byteLength": 112224,
      "byteOffset": 291744,
      "byteStride": 16,
      "name": "floatBufferViews",
      "target": 34962
    }
  ],
  "buffers": [
    {
      "byteLength": 403968,
      "uri": "scene.bin"
    }
  ],
  "images": [
    {
      "uri": "textures/lambert6SG_baseColor.jpeg"
    },
    {
      "uri": "textures/lambert6SG_metallicRoughness.png"
    },
    {
      "uri": "textures/lambert6SG_normal.png"
    },
    {
      "uri": "textures/lambert3SG_baseColor.jpeg"
    },
    {
      "uri": "textures/lambert3SG_metallicRoughness.png"
    },
    {
      "uri": "textures/lambert3SG_normal.png"
    },
    {
      "uri": "textures/lambert4SG_baseColor.jpeg"
    },
    {
      "uri": "textures/lambert4SG_metallicRoughness.png"
    },
    {
      "uri": "textures/lambert4SG_normal.png"
    },
    {
      "uri": "textures/lambert5SG_baseColor.jpeg"
    },
    {
      "uri": "textures/lambert5SG_metallicRoughness.png"
    },
    {
      "uri": "textures/lambert5SG_normal.png"
    },
    {
      "uri": "textures/lambert2SG_baseColor.jpeg"
    },
    {
      "uri": "textures/lambert2SG_metallicRoughness.png"
    },
    {
      "uri": "textures/lambert2SG_normal.png"
    }
  ],
  "materials": [
    {
      "doubleSided": true,
      "name": "lambert6SG",
      "normalTexture": {
        "index": 2
      },
      "occlusionTexture": {
        "index": 1
      },
      "pbrMetallicRoughness": {
        "baseColorTexture": {
          "index": 0
        },
        "metallicRoughnessTexture": {
          "index": 1
        }
      }
    },
    {
      "doubleSided": true,
      "name": "lambert3SG",
      "normalTexture": {
        "index": 5
      },
      "occlusionTexture": {
        "index": 4
      },
      "pbrMetallicRoughness": {
        "baseColorTexture": {
          "index": 3
        },
        "metallicRoughnessTexture": {
          "index": 4
        }
      }
    },
    {
      "doubleSided": true,
      "name": "lambert4SG",
      "normalTexture": {
        "index": 8
      },
      "occlusionTexture": {
        "index": 7
      },
      "pbrMetallicRoughness": {
        "baseColorTexture": {
          "index": 6
        },
        "metallicRoughnessTexture": {
          "index": 7
        }
      }
    },
    {
      "doubleSided": true,
      "name": "lambert5SG",
      "normalTexture": {
        "index": 11
      },
      "occlusionTexture": {
        "index": 10
      },
      "pbrMetallicRoughness": {
        "baseColorTexture": {
          "index": 9
        },
        "metallicRoughnessTexture": {
          "index": 10
        }
      }
    },
    {
      "doubleSided": true,
      "name": "lambert2SG",
      "normalTexture": {
        "index": 14
      },
      "occlusionTexture": {
        "index": 13
      },
      "pbrMetallicRoughness": {
        "baseColorTexture": {
          "index": 12
        },
        "metallicRoughnessTexture": {
          "index": 13
        }
      }
    }
  ],
  "meshes": [
    {
      "name": "defaultMaterial",
      "primitives": [
        {
          "attributes": {
            "NORMAL": 1,
            "POSITION": 0,
            "TANGENT": 2,
            "TEXCOORD_0": 3
          },
          "indices": 4,
          "material": 4,
          "mode": 4
        }
      ]
    },
    {
      "name": "defaultMaterial",
      "primitives": [
        {
          "attributes": {
            "NORMAL": 6,
            "POSITION": 5,
            "TANGENT": 7,
            "TEXCOORD_0": 8
          },
          "indices": 9,
          "material": 3,
          "mode": 4
        }
      ]
    },
    {
      "name": "defaultMaterial",
      "primitives": [
        {
          "attributes": {
            "NORMAL": 11,
            "POSITION": 10,
            "TANGENT": 12,
            "TEXCOORD_0": 13
          },
          "indices": 14,
          "material": 2,
          "mode": 4
        }
      ]
    },
    {
      "name": "defaultMaterial",
      "primitives": [
        {
          "attributes": {
            "NORMAL": 16,
            "POSITION": 15,
            "TANGENT": 17,
            "TEXCOORD_0": 18
          },
          "indices": 19,
          "material": 1,
          "mode": 4
        }
      ]
    },
    {
      "name": "defaultMaterial",
      "primitives": [
        {
          "attributes": {
            "NORMAL": 21,
            "POSITION": 20,
            "TANGENT": 22,
            "TEXCOORD_0": 23
          },
          "indices": 24,
          "material": 0,
          "mode": 4
        }
      ]
    }
  ],
  "nodes": [
    {
      "children": [
        1
      ],
      "matrix": [
        1.0,
        0.0,
        0.0,
        0.0,
        0.0,
        2.220446049250313e-16,
        -1.0,
        0.0,
        0.0,
        1.0,
        2.220446049250313e-16,
        0.0,
        0.0,
        0.0,
        0.0,
        1.0
      ],
      "name": "Sketchfab_model"
    },
    {
      "children": [
        2,
        4,
        6,
        8,
        10
      ],
      "matrix": [
        1.0,
        0.0,
        0.0,
        0.0,
        0.0,
        -4.371139006309477e-08,
        0.999999999999999,
        0.0,
        0.0,
        -0.999999999999999,
        -4.371139006309477e-08,
        0.0,
        0.0,
        0.0,
        0.0,
        1.0
      ],
      "name": "Collada visual scene group"
    },
    {
      "children": [
        3
      ],
      "name": "g"
    },
    {
      "mesh": 0,
      "name": "defaultMaterial"
    },
    {
      "children": [
        5
      ],
      "name": "g"
    },
    {
      "mesh": 1,
      "name": "defaultMaterial"
    },
    {
      "children": [
        7
      ],
      "name": "g"
    },
    {
      "mesh": 2,
      "name": "defaultMaterial"
    },
    {
      "children": [
        9
      ],
      "name": "g"
    },
    {
      "mesh": 3,
      "name": "defaultMaterial"
    },
    {
      "children": [
        11
      ],
      "name": "g"
    },
    {
      "mesh": 4,
      "name": "defaultMaterial"
    }
  ],
  "samplers": [
    {
      "magFilter": 9729,
      "minFilter": 9987,
      "wrapS": 10497,
      "wrapT": 10497
    }
  ],
  "scene": 0,
  "scenes": [
    {
      "name": "Sketchfab_Scene",
      "nodes": [
        0
      ]
    }
  ],
  "textures": [
    {
      "sampler": 0,
      "source": 0
    },
    {
      "sampler": 0,
      "source": 1
    },
    {
      "sampler": 0,
      "source": 2
    },
    {
      "sampler": 0,
      "source": 3
    },
    {
      "sampler": 0,
      "source": 4
    },
    {
      "sampler": 0,
      "source": 5
    },
    {
      "sampler": 0,
      "source": 6
    },
    {
      "sampler": 0,
      "source": 7
    },
    {
      "sampler": 0,
      "source": 8
    },
    {
      "sampler": 0,
      "source": 9
    },
    {
      "sampler": 0,
      "source": 10
    },
    {
      "sampler": 0,
      "source": 11
    },
    {
      "sampler": 0,
      "source": 12
    },
    {
      "sampler": 0,
      "source": 13
    },
    {
      "sampler": 0,
      "source": 14
    }
  ]
}
