{
  "accessors": [
    {
      "bufferView": 2,
      "componentType": 5126,
      "count": 2994,
      "max": [
        2160.5322265625,
        402.15771484375,
        4753.10400390625
      ],
      "min": [
        0.0,
        0.0,
        0.0
      ],
      "type": "VEC3"
    },
    {
      "bufferView": 2,
      "byteOffset": 35928,
      "componentType": 5126,
      "count": 2994,
      "max": [
        1.0,
        1.0,
        0.9999686479568481
      ],
      "min": [
        -1.0,
        -1.0,
        -0.9999973773956299
      ],
      "type": "VEC3"
    },
    {
      "bufferView": 3,
      "componentType": 5126,
      "count": 2994,
      "max": [
        1.0,
        0.9987090826034546,
        0.9995124340057373,
        1.0
      ],
      "min": [
        -0.999889075756073,
        -0.9998849034309387,
        -0.9998849034309387,
        -1.0
      ],
      "type": "VEC4"
    },
    {
      "bufferView": 1,
      "componentType": 5126,
      "count": 2994,
      "max": [
        0.9815000295639038,
        0.9822999835014343
      ],
      "min": [
        0.01679999940097332,
        0.018300000578165054
      ],
      "type": "VEC2"
    },
    {
      "bufferView": 0,
      "componentType": 5125,
      "count": 13956,
      "type": "SCALAR"
    }
  ],
  "asset": {
    "extras": {
      "author": "Michael Kriat (https://sketchfab.com/2x2bit)",
      "license": "CC-BY-4.0 (http://creativecommons.org/licenses/by/4.0/)",
      "source": "https://sketchfab.com/3d-models/kobza-9c0c95914b214b25b944694ede6dccb5",
      "title": "Kobza"
    },
    "generator": "Sketchfab-12.68.0",
    "version": "2.0"
  },
  "bufferViews": [
    {
      "buffer": 0,
      "byteLength": 55824,
      "name": "floatBufferViews",
      "target": 34963
    },
    {
      "buffer": 0,
      "byteLength": 23952,
      "byteOffset": 55824,
      "byteStride": 8,
      "name": "floatBufferViews",
      "target": 34962
    },
    {
      "buffer": 0,
      "byteLength": 71856,
      "byteOffset": 79776,
      "byteStride": 12,
      "name": "floatBufferViews",
      "target": 34962
    },
    {
      "buffer": 0,
      "byteLength": 47904,
      "byteOffset": 151632,
      "byteStride": 16,
      "name": "floatBufferViews",
      "target": 34962
    }
  ],
  "buffers": [
    {
      "byteLength": 199536,
      "uri": "scene.bin"
    }
  ],
  "images": [
    {
      "uri": "textures/kobza_baseColor.png"
    },
    {
      "uri": "textures/kobza_metallicRoughness.png"
    },
    {
      "uri": "textures/kobza_normal.png"
    }
  ],
  "materials": [
    {
      "alphaMode": "BLEND",
      "doubleSided": true,
      "name": "kobza",
      "normalTexture": {
        "index": 2
      },
      "pbrMetallicRoughness": {
        "baseColorTexture": {
          "index": 0
        },
        "metallicRoughnessTexture": {
          "index": 1
        }
      }
    }
  ],
  "meshes": [
    {
      "name": "Object_0",
      "primitives": [
        {
          "attributes": {
            "NORMAL": 1,
            "POSITION": 0,
            "TANGENT": 2,
            "TEXCOORD_0": 3
          },
          "indices": 4,
          "material": 0,
          "mode": 4
        }
      ]
    }
  ],
  "nodes": [
    {
      "children": [
        1
      ],
      "matrix": [
        0.0002953976800199598,
        0.0,
        0.0,
        0.0,
        0.0,
        6.559146115580279e-20,
        -0.0002953976800199598,
        0.0,
        0.0,
        0.0002953976800199598,
        6.559146115580279e-20,
        0.0,
        0.0,
        0.0,
        0.0,
        1.0
      ],
      "name": "Sketchfab_model"
    },
    {
      "children": [
        2
      ],
      "matrix": [
        1.0,
        0.0,
        0.0,
        0.0,
        0.0,
        1.0,
        0.0,
        0.0,
        0.0,
        0.0,
        1.0,
        0.0,
        8289.5986328125,
        -194.36129760742188,
        -40.652801513671875,
        1.0
      ],
      "name": "skfb_offset"
    },
    {
      "children": [
        3
      ],
      "name": "Object_2"
    },
    {
      "mesh": 0,
      "name": "Object_3"
    }
  ],
  "samplers": [
    {
      "magFilter": 9729,
      "minFilter": 9987,
      "wrapS": 10497,
      "wrapT": 10497
    }
  ],
  "scene": 0,
  "scenes": [
    {
      "name": "Sketchfab_Scene",
      "nodes": [
        0
      ]
    }
  ],
  "textures": [
    {
      "sampler": 0,
      "source": 0
    },
    {
      "sampler": 0,
      "source": 1
    },
    {
      "sampler": 0,
      "source": 2
    }
  ]
}
