{
	"asset":{
		"generator":"Khronos glTF Blender I/O v3.6.27",
		"version":"2.0"
	},
	"scene":0,
	"scenes":[
		{
			"name":"Scene",
			"nodes":[
				4
			]
		}
	],
	"nodes":[
		{
			"mesh":0,
			"name":"Djembe.003_Djembe_0"
		},
		{
			"children":[
				0
			],
			"name":"Djembe.003",
			"scale":[
				3,
				2.999999761581421,
				2.999999761581421
			]
		},
		{
			"children":[
				1
			],
			"name":"RootNode"
		},
		{
			"children":[
				2
			],
			"name":"fca7985ed02f44408cb60577ddc49725.fbx",
			"rotation":[
				0.70710688829422,
				0,
				0,
				0.7071066498756409
			],
			"scale":[
				0.009999999776482582,
				0.010000000707805157,
				0.010000000707805157
			]
		},
		{
			"children":[
				3
			],
			"name":"Sketchfab_model",
			"rotation":[
				-0.70710688829422,
				0,
				0,
				0.7071066498756409
			]
		}
	],
	"materials":[
		{
			"doubleSided":true,
			"name":"Djembe",
			"pbrMetallicRoughness":{
				"baseColorTexture":{
					"index":0
				},
				"metallicFactor":0.19961965084075928,
				"roughnessFactor":0.489522248506546
			}
		}
	],
	"meshes":[
		{
			"name":"Djembe.003_Djembe_0",
			"primitives":[
				{
					"attributes":{
						"POSITION":0,
						"NORMAL":1,
						"TEXCOORD_0":2
					},
					"indices":3,
					"material":0
				}
			]
		}
	],
	"textures":[
		{
			"sampler":0,
			"source":0
		}
	],
	"images":[
		{
			"bufferView":4,
			"mimeType":"image/png",
			"name":"Djembe_baseColor"
		}
	],
	"accessors":[
		{
			"bufferView":0,
			"componentType":5126,
			"count":3354,
			"max":[
				44.23830032348633,
				23.78780174255371,
				44.24257278442383
			],
			"min":[
				-44.24644088745117,
				-77.97093200683594,
				-44.242191314697266
			],
			"type":"VEC3"
		},
		{
			"bufferView":1,
			"componentType":5126,
			"count":3354,
			"type":"VEC3"
		},
		{
			"bufferView":2,
			"componentType":5126,
			"count":3354,
			"type":"VEC2"
		},
		{
			"bufferView":3,
			"componentType":5123,
			"count":4980,
			"type":"SCALAR"
		}
	],
	"bufferViews":[
		{
			"buffer":0,
			"byteLength":40248,
			"byteOffset":0,
			"target":34962
		},
		{
			"buffer":0,
			"byteLength":40248,
			"byteOffset":40248,
			"target":34962
		},
		{
			"buffer":0,
			"byteLength":26832,
			"byteOffset":80496,
			"target":34962
		},
		{
			"buffer":0,
			"byteLength":9960,
			"byteOffset":107328,
			"target":34963
		},
		{
			"buffer":0,
			"byteLength":4611,
			"byteOffset":117288
		}
	],
	"samplers":[
		{
			"magFilter":9729,
			"minFilter":9987
		}
	],
	"buffers":[
		{
			"byteLength":121900,
			"uri":"data:application/octet-stream;base64,"
		}
	]
}
