{
  "accessors": [
    {
      "bufferView": 1,
      "componentType": 5126,
      "count": 833,
      "max": [
        1.968850016593933,
        1.9627100229263306,
        5.044950008392334
      ],
      "min": [
        -1.9566400051116943,
        -1.9627900123596191,
        -2.8324899673461914
      ],
      "type": "VEC3"
    },
    {
      "bufferView": 1,
      "byteOffset": 9996,
      "componentType": 5126,
      "count": 833,
      "max": [
        1.0,
        0.9524036645889282,
        1.0
      ],
      "min": [
        -1.0,
        -0.9524036645889282,
        -1.0
      ],
      "type": "VEC3"
    },
    {
      "bufferView": 0,
      "componentType": 5125,
      "count": 1347,
      "type": "SCALAR"
    }
  ],
  "asset": {
    "extras": {
      "author": "marcelo.medeirossilva (https://sketchfab.com/marcelo.medeirossilva)",
      "license": "CC-BY-NC-SA-4.0 (http://creativecommons.org/licenses/by-nc-sa/4.0/)",
      "source": "https://sketchfab.com/3d-models/low-poly-chess-bishop-75681488e5fe457280813781cf3d15c1",
      "title": "Low Poly Chess - Bishop"
    },
    "generator": "Sketchfab-12.66.0",
    "version": "2.0"
  },
  "bufferViews": [
    {
      "buffer": 0,
      "byteLength": 5388,
      "name": "floatBufferViews",
      "target": 34963
    },
    {
      "buffer": 0,
      "byteLength": 19992,
      "byteOffset": 5388,
      "byteStride": 12,
      "name": "floatBufferViews",
      "target": 34962
    }
  ],
  "buffers": [
    {
      "byteLength": 25380,
      "uri": "scene.bin"
    }
  ],
  "materials": [
    {
      "doubleSided": true,
      "name": "Root",
      "pbrMetallicRoughness": {
        "baseColorFactor": [
          0.410251524390244,
          0.410251524390244,
          0.410251524390244,
          1.0
        ],
        "metallicFactor": 0.0,
        "roughnessFactor": 0.6
      }
    }
  ],
  "meshes": [
    {
      "name": "Chess_Bishop_0",
      "primitives": [
        {
          "attributes": {
            "NORMAL": 1,
            "POSITION": 0
          },
          "indices": 2,
          "material": 0,
          "mode": 4
        }
      ]
    }
  ],
  "nodes": [
    {
      "children": [
        1
      ],
      "matrix": [
        0.20000000298023224,
        0.0,
        0.0,
        0.0,
        0.0,
        4.440892164675075e-17,
        -0.20000000298023224,
        0.0,
        0.0,
        0.20000000298023224,
        4.440892164675075e-17,
        0.0,
        0.0,
        0.0,
        0.0,
        1.0
      ],
      "name": "Sketchfab_model"
    },
    {
      "children": [
        2,
        4
      ],
      "name": "Root"
    },
    {
      "children": [
        3
      ],
      "matrix": [
        -0.29086000000000006,
        0.9551700000000001,
        -0.05519000000000001,
        0.0,
        -0.7711,
        -0.19988000000000003,
        0.6045200000000001,
        0.0,
        0.5663900000000001,
        0.21839000000000003,
        0.7946700000000001,
        0.0,
        4.076250000000001,
        1.00545,
        5.903860000000001,
        1.0
      ],
      "name": "Lamp"
    },
    {
      "name": "Lamp"
    },
    {
      "children": [
        5
      ],
      "matrix": [
        1.0,
        0.0,
        0.0,
        0.0,
        0.0,
        1.0,
        0.0,
        0.0,
        0.0,
        0.0,
        1.0,
        0.0,
        -0.006100000000000002,
        4.000000000000002e-05,
        2.8324899999999995,
        1.0
      ],
      "name": "Chess_Bishop"
    },
    {
      "mesh": 0,
      "name": "Chess_Bishop_0"
    }
  ],
  "scene": 0,
  "scenes": [
    {
      "name": "Sketchfab_Scene",
      "nodes": [
        0
      ]
    }
  ]
}
