{
  "accessors": [
    {
      "bufferView": 2,
      "componentType": 5126,
      "count": 6556,
      "max": [
        3033.42626953125,
        2780.685791015625,
        557.3726196289063
      ],
      "min": [
        1141.23388671875,
        -2751.140625,
        -480.3348388671875
      ],
      "type": "VEC3"
    },
    {
      "bufferView": 2,
      "byteOffset": 78672,
      "componentType": 5126,
      "count": 6556,
      "max": [
        1.0,
        1.0,
        1.0
      ],
      "min": [
        -1.0,
        -1.0,
        -1.0
      ],
      "type": "VEC3"
    },
    {
      "bufferView": 3,
      "componentType": 5126,
      "count": 6556,
      "max": [
        0.9999998211860657,
        1.0,
        1.0,
        1.0
      ],
      "min": [
        -1.0,
        -1.0,
        -1.0,
        1.0
      ],
      "type": "VEC4"
    },
    {
      "bufferView": 1,
      "componentType": 5126,
      "count": 6556,
      "max": [
        0.9990596771240234,
        1.0008313655853271
      ],
      "min": [
        0.0009592559072189033,
        -0.0006298422813415527
      ],
      "type": "VEC2"
    },
    {
      "bufferView": 1,
      "byteOffset": 52448,
      "componentType": 5126,
      "count": 6556,
      "max": [
        0.9990596771240234,
        1.0008313655853271
      ],
      "min": [
        0.0009592559072189033,
        -0.0006298422813415527
      ],
      "type": "VEC2"
    },
    {
      "bufferView": 0,
      "componentType": 5125,
      "count": 23376,
      "type": "SCALAR"
    }
  ],
  "asset": {
    "extras": {
      "author": "Denis.Masovitch (https://sketchfab.com/Denis.Masovitch)",
      "license": "CC-BY-SA-4.0 (http://creativecommons.org/licenses/by-sa/4.0/)",
      "source": "https://sketchfab.com/3d-models/pbr-cello-works-in-ue4-23886548f77547858d5c93cc3d0a0939",
      "title": "PBR cello (works in UE4)"
    },
    "generator": "Sketchfab-12.67.0",
    "version": "2.0"
  },
  "bufferViews": [
    {
      "buffer": 0,
      "byteLength": 93504,
      "name": "floatBufferViews",
      "target": 34963
    },
    {
      "buffer": 0,
      "byteLength": 104896,
      "byteOffset": 93504,
      "byteStride": 8,
      "name": "floatBufferViews",
      "target": 34962
    },
    {
      "buffer": 0,
      "byteLength": 157344,
      "byteOffset": 198400,
      "byteStride": 12,
      "name": "floatBufferViews",
      "target": 34962
    },
    {
      "buffer": 0,
      "byteLength": 104896,
      "byteOffset": 355744,
      "byteStride": 16,
      "name": "floatBufferViews",
      "target": 34962
    }
  ],
  "buffers": [
    {
      "byteLength": 460640,
      "uri": "scene.bin"
    }
  ],
  "images": [
    {
      "uri": "textures/Material_462_baseColor.png"
    },
    {
      "uri": "textures/Material_462_metallicRoughness.png"
    },
    {
      "uri": "textures/Material_462_normal.png"
    }
  ],
  "materials": [
    {
      "alphaCutoff": 0.2212271341,
      "alphaMode": "MASK",
      "doubleSided": true,
      "name": "Material_462",
      "normalTexture": {
        "index": 2
      },
      "occlusionTexture": {
        "index": 1
      },
      "pbrMetallicRoughness": {
        "baseColorTexture": {
          "index": 0
        },
        "metallicRoughnessTexture": {
          "index": 1
        }
      }
    }
  ],
  "meshes": [
    {
      "name": "uyuyiuyuiytrt_Material #462_0",
      "primitives": [
        {
          "attributes": {
            "NORMAL": 1,
            "POSITION": 0,
            "TANGENT": 2,
            "TEXCOORD_0": 3,
            "TEXCOORD_1": 4
          },
          "indices": 5,
          "material": 0,
          "mode": 4
        }
      ]
    }
  ],
  "nodes": [
    {
      "children": [
        1
      ],
      "matrix": [
        0.0002525305899325758,
        0.0,
        0.0,
        0.0,
        0.0,
        5.607305507306389e-20,
        -0.0002525305899325758,
        0.0,
        0.0,
        0.0002525305899325758,
        5.607305507306389e-20,
        0.0,
        0.0,
        0.0,
        0.0,
        1.0
      ],
      "name": "Sketchfab_model"
    },
    {
      "children": [
        2
      ],
      "matrix": [
        1.0,
        0.0,
        0.0,
        0.0,
        0.0,
        0.0,
        1.0,
        0.0,
        0.0,
        -1.0,
        0.0,
        0.0,
        0.0,
        0.0,
        0.0,
        1.0
      ],
      "name": "Cello.FBX"
    },
    {
      "children": [
        3
      ],
      "name": "RootNode"
    },
    {
      "children": [
        4
      ],
      "matrix": [
        1.0,
        0.0,
        0.0,
        0.0,
        0.0,
        0.999999999999999,
        4.371138828673792e-08,
        0.0,
        0.0,
        -4.371138828673792e-08,
        0.999999999999999,
        0.0,
        0.0,
        0.0,
        0.0,
        1.0
      ],
      "name": "uyuyiuyuiytrt"
    },
    {
      "children": [
        5
      ],
      "matrix": [
        1.0,
        0.0,
        -0.0,
        0.0,
        0.0,
        1.0,
        0.0,
        0.0,
        0.0,
        0.0,
        1.0,
        0.0,
        -2087.330078125,
        -14.7725830078125,
        -38.518890380859375,
        1.0
      ],
      "name": "Object_4"
    },
    {
      "mesh": 0,
      "name": "uyuyiuyuiytrt_Material #462_0"
    }
  ],
  "samplers": [
    {
      "magFilter": 9729,
      "minFilter": 9987,
      "wrapS": 10497,
      "wrapT": 10497
    }
  ],
  "scene": 0,
  "scenes": [
    {
      "name": "Sketchfab_Scene",
      "nodes": [
        0
      ]
    }
  ],
  "textures": [
    {
      "sampler": 0,
      "source": 0
    },
    {
      "sampler": 0,
      "source": 1
    },
    {
      "sampler": 0,
      "source": 2
    }
  ]
}
