{
	"asset":{
		"generator":"Khronos glTF Blender I/O v3.6.27",
		"version":"2.0"
	},
	"scene":0,
	"scenes":[
		{
			"name":"Scene",
			"nodes":[
				13
			]
		}
	],
	"nodes":[
		{
			"mesh":0,
			"name":"potion_body_glass_base_0"
		},
		{
			"mesh":1,
			"name":"potion_body_tap_0"
		},
		{
			"children":[
				0,
				1
			],
			"name":"potion_body",
			"rotation":[
				-0.70710688829422,
				0,
				0,
				0.7071066498756409
			],
			"scale":[
				100,
				99.99999237060547,
				99.99999237060547
			],
			"translation":[
				1.923056721687317,
				197.5165557861328,
				2.721998691558838
			]
		},
		{
			"mesh":2,
			"name":"potion_body.001_liquid_0"
		},
		{
			"children":[
				3
			],
			"name":"potion_body.001",
			"rotation":[
				-0.70710688829422,
				0,
				0,
				0.7071066498756409
			],
			"scale":[
				100,
				99.99999237060547,
				99.99999237060547
			],
			"translation":[
				1.923056721687317,
				197.5165557861328,
				2.721998691558838
			]
		},
		{
			"mesh":3,
			"name":"potion_body.002_bubbles_0"
		},
		{
			"children":[
				5
			],
			"name":"potion_body.002",
			"rotation":[
				-0.70710688829422,
				0,
				0,
				0.7071066498756409
			],
			"scale":[
				100,
				99.99999237060547,
				99.99999237060547
			],
			"translation":[
				1.923056721687317,
				197.5165557861328,
				2.721998691558838
			]
		},
		{
			"mesh":4,
			"name":"potion_content_glass_0"
		},
		{
			"children":[
				7
			],
			"name":"potion_content",
			"rotation":[
				-0.70710688829422,
				0,
				0,
				0.7071066498756409
			],
			"scale":[
				100,
				99.99999237060547,
				99.99999237060547
			],
			"translation":[
				-2.326034746147343e-06,
				76.0676498413086,
				0
			]
		},
		{
			"mesh":5,
			"name":"potion_tap_tap_0"
		},
		{
			"children":[
				9
			],
			"name":"potion_tap",
			"rotation":[
				-0.70710688829422,
				0,
				0,
				0.7071066498756409
			],
			"scale":[
				100,
				99.99999237060547,
				99.99999237060547
			],
			"translation":[
				2.069605898213922e-06,
				399.1689758300781,
				0
			]
		},
		{
			"children":[
				2,
				4,
				6,
				8,
				10
			],
			"name":"RootNode"
		},
		{
			"children":[
				11
			],
			"name":"85a2c922552d40faa5ee7eeac68d0636.fbx",
			"rotation":[
				0.70710688829422,
				0,
				0,
				0.7071066498756409
			]
		},
		{
			"children":[
				12
			],
			"name":"Sketchfab_model",
			"rotation":[
				-0.70710688829422,
				0,
				0,
				0.7071066498756409
			],
			"scale":[
				0.009999999776482582,
				0.010000000707805157,
				0.010000000707805157
			]
		}
	],
	"materials":[
		{
			"doubleSided":true,
			"name":"glass_base",
			"pbrMetallicRoughness":{}
		},
		{
			"doubleSided":true,
			"emissiveFactor":[
				1,
				1,
				1
			],
			"emissiveTexture":{
				"index":0
			},
			"name":"material",
			"pbrMetallicRoughness":{
				"baseColorFactor":[
					0,
					0,
					0,
					1
				]
			}
		},
		{
			"alphaMode":"BLEND",
			"doubleSided":true,
			"emissiveFactor":[
				0.20000000298023224,
				0.20000000298023224,
				0.20000000298023224
			],
			"emissiveTexture":{
				"index":1
			},
			"name":"liquid",
			"pbrMetallicRoughness":{
				"baseColorFactor":[
					0,
					0,
					0,
					1
				]
			}
		},
		{
			"alphaMode":"BLEND",
			"doubleSided":true,
			"emissiveFactor":[
				1,
				1,
				1
			],
			"emissiveTexture":{
				"index":2
			},
			"name":"bubbles",
			"pbrMetallicRoughness":{
				"baseColorFactor":[
					0,
					0,
					0,
					1
				]
			}
		},
		{
			"alphaMode":"BLEND",
			"doubleSided":true,
			"emissiveTexture":{
				"index":3
			},
			"name":"glass",
			"pbrMetallicRoughness":{}
		}
	],
	"meshes":[
		{
			"name":"potion_body_glass_base_0",
			"primitives":[
				{
					"attributes":{
						"POSITION":0,
						"NORMAL":1,
						"TEXCOORD_0":2
					},
					"indices":3,
					"material":0
				}
			]
		},
		{
			"name":"potion_body_tap_0",
			"primitives":[
				{
					"attributes":{
						"POSITION":4,
						"NORMAL":5,
						"TEXCOORD_0":6
					},
					"indices":7,
					"material":1
				}
			]
		},
		{
			"name":"potion_body.001_liquid_0",
			"primitives":[
				{
					"attributes":{
						"POSITION":8,
						"NORMAL":9,
						"TEXCOORD_0":10
					},
					"indices":11,
					"material":2
				}
			]
		},
		{
			"name":"potion_body.002_bubbles_0",
			"primitives":[
				{
					"attributes":{
						"POSITION":12,
						"NORMAL":13,
						"TEXCOORD_0":14
					},
					"indices":15,
					"material":3
				}
			]
		},
		{
			"name":"potion_content_glass_0",
			"primitives":[
				{
					"attributes":{
						"POSITION":16,
						"NORMAL":17,
						"TEXCOORD_0":18
					},
					"indices":19,
					"material":4
				}
			]
		},
		{
			"name":"potion_tap_tap_0",
			"primitives":[
				{
					"attributes":{
						"POSITION":20,
						"NORMAL":21,
						"TEXCOORD_0":22
					},
					"indices":23,
					"material":1
				}
			]
		}
	],
	"textures":[
		{
			"sampler":0,
			"source":0
		},
		{
			"sampler":0,
			"source":0
		},
		{
			"sampler":0,
			"source":0
		},
		{
			"sampler":0,
			"source":0
		}
	],
	"images":[
		{
			"mimeType":"image/png",
			"name":"bubbles_emissive",
			"uri":"bubbles_emissive.png"
		}
	],
	"accessors":[
		{
			"bufferView":0,
			"componentType":5126,
			"count":816,
			"max":[
				1.3139128684997559,
				1.360363483428955,
				1.8951430320739746
			],
			"min":[
				-1.3523740768432617,
				-1.3059234619140625,
				-0.23673486709594727
			],
			"type":"VEC3"
		},
		{
			"bufferView":1,
			"componentType":5126,
			"count":816,
			"type":"VEC3"
		},
		{
			"bufferView":2,
			"componentType":5126,
			"count":816,
			"type":"VEC2"
		},
		{
			"bufferView":3,
			"componentType":5123,
			"count":1224,
			"type":"SCALAR"
		},
		{
			"bufferView":4,
			"componentType":5126,
			"count":64,
			"max":[
				1.1055675745010376,
				1.1520181894302368,
				0.7720134854316711
			],
			"min":[
				-1.1440287828445435,
				-1.0975781679153442,
				0.006742917001247406
			],
			"type":"VEC3"
		},
		{
			"bufferView":5,
			"componentType":5126,
			"count":64,
			"type":"VEC3"
		},
		{
			"bufferView":6,
			"componentType":5126,
			"count":64,
			"type":"VEC2"
		},
		{
			"bufferView":7,
			"componentType":5123,
			"count":96,
			"type":"SCALAR"
		},
		{
			"bufferView":8,
			"componentType":5126,
			"count":134,
			"max":[
				1.4964791536331177,
				1.542929768562317,
				-0.2363266944885254
			],
			"min":[
				-1.5349403619766235,
				-1.4884897470474243,
				-2.096384048461914
			],
			"type":"VEC3"
		},
		{
			"bufferView":9,
			"componentType":5126,
			"count":134,
			"type":"VEC3"
		},
		{
			"bufferView":10,
			"componentType":5126,
			"count":134,
			"type":"VEC2"
		},
		{
			"bufferView":11,
			"componentType":5123,
			"count":192,
			"type":"SCALAR"
		},
		{
			"bufferView":12,
			"componentType":5126,
			"count":240,
			"max":[
				0.6728034615516663,
				0.864000678062439,
				-0.5784173011779785
			],
			"min":[
				-1.0057653188705444,
				-0.6314479112625122,
				-1.7466814517974854
			],
			"type":"VEC3"
		},
		{
			"bufferView":13,
			"componentType":5126,
			"count":240,
			"type":"VEC3"
		},
		{
			"bufferView":14,
			"componentType":5126,
			"count":240,
			"type":"VEC2"
		},
		{
			"bufferView":15,
			"componentType":5123,
			"count":240,
			"type":"SCALAR"
		},
		{
			"bufferView":16,
			"componentType":5126,
			"count":142,
			"max":[
				1.7168853282928467,
				1.7168853282928467,
				0.9886834621429443
			],
			"min":[
				-1.7168853282928467,
				-1.7168853282928467,
				-0.9671339988708496
			],
			"type":"VEC3"
		},
		{
			"bufferView":17,
			"componentType":5126,
			"count":142,
			"type":"VEC3"
		},
		{
			"bufferView":18,
			"componentType":5126,
			"count":142,
			"type":"VEC2"
		},
		{
			"bufferView":19,
			"componentType":5123,
			"count":216,
			"type":"SCALAR"
		},
		{
			"bufferView":20,
			"componentType":5126,
			"count":72,
			"max":[
				0.7966421842575073,
				0.7966421842575073,
				1.1220731735229492
			],
			"min":[
				-0.7966421842575073,
				-0.7966421842575073,
				-0.4020862579345703
			],
			"type":"VEC3"
		},
		{
			"bufferView":21,
			"componentType":5126,
			"count":72,
			"type":"VEC3"
		},
		{
			"bufferView":22,
			"componentType":5126,
			"count":72,
			"type":"VEC2"
		},
		{
			"bufferView":23,
			"componentType":5123,
			"count":96,
			"type":"SCALAR"
		}
	],
	"bufferViews":[
		{
			"buffer":0,
			"byteLength":9792,
			"byteOffset":0,
			"target":34962
		},
		{
			"buffer":0,
			"byteLength":9792,
			"byteOffset":9792,
			"target":34962
		},
		{
			"buffer":0,
			"byteLength":6528,
			"byteOffset":19584,
			"target":34962
		},
		{
			"buffer":0,
			"byteLength":2448,
			"byteOffset":26112,
			"target":34963
		},
		{
			"buffer":0,
			"byteLength":768,
			"byteOffset":28560,
			"target":34962
		},
		{
			"buffer":0,
			"byteLength":768,
			"byteOffset":29328,
			"target":34962
		},
		{
			"buffer":0,
			"byteLength":512,
			"byteOffset":30096,
			"target":34962
		},
		{
			"buffer":0,
			"byteLength":192,
			"byteOffset":30608,
			"target":34963
		},
		{
			"buffer":0,
			"byteLength":1608,
			"byteOffset":30800,
			"target":34962
		},
		{
			"buffer":0,
			"byteLength":1608,
			"byteOffset":32408,
			"target":34962
		},
		{
			"buffer":0,
			"byteLength":1072,
			"byteOffset":34016,
			"target":34962
		},
		{
			"buffer":0,
			"byteLength":384,
			"byteOffset":35088,
			"target":34963
		},
		{
			"buffer":0,
			"byteLength":2880,
			"byteOffset":35472,
			"target":34962
		},
		{
			"buffer":0,
			"byteLength":2880,
			"byteOffset":38352,
			"target":34962
		},
		{
			"buffer":0,
			"byteLength":1920,
			"byteOffset":41232,
			"target":34962
		},
		{
			"buffer":0,
			"byteLength":480,
			"byteOffset":43152,
			"target":34963
		},
		{
			"buffer":0,
			"byteLength":1704,
			"byteOffset":43632,
			"target":34962
		},
		{
			"buffer":0,
			"byteLength":1704,
			"byteOffset":45336,
			"target":34962
		},
		{
			"buffer":0,
			"byteLength":1136,
			"byteOffset":47040,
			"target":34962
		},
		{
			"buffer":0,
			"byteLength":432,
			"byteOffset":48176,
			"target":34963
		},
		{
			"buffer":0,
			"byteLength":864,
			"byteOffset":48608,
			"target":34962
		},
		{
			"buffer":0,
			"byteLength":864,
			"byteOffset":49472,
			"target":34962
		},
		{
			"buffer":0,
			"byteLength":576,
			"byteOffset":50336,
			"target":34962
		},
		{
			"buffer":0,
			"byteLength":192,
			"byteOffset":50912,
			"target":34963
		}
	],
	"samplers":[
		{
			"magFilter":9729,
			"minFilter":9987
		}
	],
	"buffers":[
		{
			"byteLength":51104,
			"uri":"scene.bin"
		}
	]
}
