{
	"asset":{
		"generator":"Khronos glTF Blender I/O v3.6.27",
		"version":"2.0"
	},
	"scene":0,
	"scenes":[
		{
			"name":"Scene",
			"nodes":[
				4
			]
		}
	],
	"nodes":[
		{
			"mesh":0,
			"name":"fireplace_fireplace_0"
		},
		{
			"children":[
				0
			],
			"name":"fireplace",
			"rotation":[
				0,
				0.7071068286895752,
				0,
				0.7071067094802856
			],
			"scale":[
				30.828025817871094,
				30.828022003173828,
				30.82802391052246
			]
		},
		{
			"children":[
				1
			],
			"name":"RootNode"
		},
		{
			"children":[
				2
			],
			"name":"fireplace.fbx",
			"rotation":[
				0.70710688829422,
				0,
				0,
				0.7071066498756409
			],
			"scale":[
				0.009999999776482582,
				0.010000001639127731,
				0.010000001639127731
			]
		},
		{
			"children":[
				3
			],
			"name":"Sketchfab_model",
			"rotation":[
				-0.70710688829422,
				0,
				0,
				0.7071066498756409
			],
			"scale":[
				6.5,
				6.500000953674316,
				6.500000953674316
			]
		}
	],
	"materials":[
		{
			"doubleSided":true,
			"name":"fireplace.001",
			"normalTexture":{
				"index":0
			},
			"occlusionTexture":{
				"index":1
			},
			"pbrMetallicRoughness":{
				"baseColorTexture":{
					"index":2
				},
				"metallicRoughnessTexture":{
					"index":1
				}
			}
		}
	],
	"meshes":[
		{
			"name":"fireplace_fireplace_0.001",
			"primitives":[
				{
					"attributes":{
						"POSITION":0,
						"NORMAL":1,
						"TEXCOORD_0":2,
						"TEXCOORD_1":3,
						"TEXCOORD_2":4,
						"TEXCOORD_3":5,
						"TEXCOORD_4":6,
						"TEXCOORD_5":7
					},
					"indices":8,
					"material":0
				}
			]
		}
	],
	"textures":[
		{
			"sampler":0,
			"source":0
		},
		{
			"sampler":0,
			"source":1
		},
		{
			"sampler":0,
			"source":2
		}
	],
	"images":[
		{
			"mimeType":"image/png",
			"name":"fireplace_normal",
			"uri":"fireplace_normal.png"
		},
		{
			"mimeType":"image/png",
			"name":"fireplace_metallicRoughness",
			"uri":"fireplace_metallicRoughness.png"
		},
		{
			"mimeType":"image/png",
			"name":"fireplace_baseColor",
			"uri":"fireplace_baseColor.png"
		}
	],
	"accessors":[
		{
			"bufferView":0,
			"componentType":5126,
			"count":634,
			"max":[
				0.3826204240322113,
				1.6909583806991577,
				1.088604211807251
			],
			"min":[
				-0.44673189520835876,
				-6.170296869313166e-17,
				-1.088604211807251
			],
			"type":"VEC3"
		},
		{
			"bufferView":1,
			"componentType":5126,
			"count":634,
			"type":"VEC3"
		},
		{
			"bufferView":2,
			"componentType":5126,
			"count":634,
			"type":"VEC2"
		},
		{
			"bufferView":3,
			"componentType":5126,
			"count":634,
			"type":"VEC2"
		},
		{
			"bufferView":4,
			"componentType":5126,
			"count":634,
			"type":"VEC2"
		},
		{
			"bufferView":5,
			"componentType":5126,
			"count":634,
			"type":"VEC2"
		},
		{
			"bufferView":6,
			"componentType":5126,
			"count":634,
			"type":"VEC2"
		},
		{
			"bufferView":7,
			"componentType":5126,
			"count":634,
			"type":"VEC2"
		},
		{
			"bufferView":8,
			"componentType":5123,
			"count":1104,
			"type":"SCALAR"
		}
	],
	"bufferViews":[
		{
			"buffer":0,
			"byteLength":7608,
			"byteOffset":0,
			"target":34962
		},
		{
			"buffer":0,
			"byteLength":7608,
			"byteOffset":7608,
			"target":34962
		},
		{
			"buffer":0,
			"byteLength":5072,
			"byteOffset":15216,
			"target":34962
		},
		{
			"buffer":0,
			"byteLength":5072,
			"byteOffset":20288,
			"target":34962
		},
		{
			"buffer":0,
			"byteLength":5072,
			"byteOffset":25360,
			"target":34962
		},
		{
			"buffer":0,
			"byteLength":5072,
			"byteOffset":30432,
			"target":34962
		},
		{
			"buffer":0,
			"byteLength":5072,
			"byteOffset":35504,
			"target":34962
		},
		{
			"buffer":0,
			"byteLength":5072,
			"byteOffset":40576,
			"target":34962
		},
		{
			"buffer":0,
			"byteLength":2208,
			"byteOffset":45648,
			"target":34963
		}
	],
	"samplers":[
		{
			"magFilter":9729,
			"minFilter":9987
		}
	],
	"buffers":[
		{
			"byteLength":47856,
			"uri":"scene.bin"
		}
	]
}
