{
  "accessors": [
    {
      "bufferView": 2,
      "componentType": 5126,
      "count": 1488,
      "max": [
        111.97069549560547,
        111.97068786621094,
        260.35101318359375
      ],
      "min": [
        -111.97068786621094,
        -111.97068786621094,
        0.0
      ],
      "type": "VEC3"
    },
    {
      "bufferView": 2,
      "byteOffset": 17856,
      "componentType": 5126,
      "count": 1488,
      "max": [
        1.0,
        1.0,
        1.0
      ],
      "min": [
        -1.0,
        -1.0,
        -1.0
      ],
      "type": "VEC3"
    },
    {
      "bufferView": 3,
      "componentType": 5126,
      "count": 1488,
      "max": [
        1.0,
        1.0,
        1.0,
        1.0
      ],
      "min": [
        -1.0,
        -1.0,
        -1.0,
        1.0
      ],
      "type": "VEC4"
    },
    {
      "bufferView": 1,
      "componentType": 5126,
      "count": 1488,
      "max": [
        0.9991721510887146,
        0.9967557787895203
      ],
      "min": [
        0.0063002752140164375,
        0.0027536582201719284
      ],
      "type": "VEC2"
    },
    {
      "bufferView": 0,
      "componentType": 5125,
      "count": 4572,
      "type": "SCALAR"
    },
    {
      "bufferView": 2,
      "byteOffset": 35712,
      "componentType": 5126,
      "count": 162,
      "max": [
        41.30701446533203,
        41.30701446533203,
        28.851112365722656
      ],
      "min": [
        -41.30701446533203,
        -41.30701446533203,
        -118.68896484375
      ],
      "type": "VEC3"
    },
    {
      "bufferView": 2,
      "byteOffset": 37656,
      "componentType": 5126,
      "count": 162,
      "max": [
        1.0,
        1.0,
        1.0
      ],
      "min": [
        -1.0,
        -1.0,
        -0.9285948872566223
      ],
      "type": "VEC3"
    },
    {
      "bufferView": 3,
      "byteOffset": 23808,
      "componentType": 5126,
      "count": 162,
      "max": [
        1.0,
        1.0,
        1.0,
        1.0
      ],
      "min": [
        -1.0,
        -1.0,
        -0.9887173175811768,
        1.0
      ],
      "type": "VEC4"
    },
    {
      "bufferView": 1,
      "byteOffset": 11904,
      "componentType": 5126,
      "count": 162,
      "max": [
        0.9992370009422302,
        0.9440122246742249
      ],
      "min": [
        0.0017914557829499245,
        0.5155854225158691
      ],
      "type": "VEC2"
    },
    {
      "bufferView": 0,
      "byteOffset": 18288,
      "componentType": 5125,
      "count": 492,
      "type": "SCALAR"
    },
    {
      "bufferView": 2,
      "byteOffset": 39600,
      "componentType": 5126,
      "count": 66,
      "max": [
        5.0,
        128.013916015625,
        4.990233898162842
      ],
      "min": [
        -5.0,
        -27.542984008789063,
        -5.009766101837158
      ],
      "type": "VEC3"
    },
    {
      "bufferView": 2,
      "byteOffset": 40392,
      "componentType": 5126,
      "count": 66,
      "max": [
        1.0,
        1.0,
        1.0
      ],
      "min": [
        -0.9897268414497375,
        -1.0,
        -0.9897268414497375
      ],
      "type": "VEC3"
    },
    {
      "bufferView": 3,
      "byteOffset": 26400,
      "componentType": 5126,
      "count": 66,
      "max": [
        0.9999995827674866,
        0.28873443603515625,
        0.9995947480201721,
        1.0
      ],
      "min": [
        -0.9986283779144287,
        -1.0,
        -1.0,
        1.0
      ],
      "type": "VEC4"
    },
    {
      "bufferView": 1,
      "byteOffset": 13200,
      "componentType": 5126,
      "count": 66,
      "max": [
        0.6940089464187622,
        0.24942047894001007
      ],
      "min": [
        0.05109276995062828,
        0.0009462569141760468
      ],
      "type": "VEC2"
    },
    {
      "bufferView": 0,
      "byteOffset": 20256,
      "componentType": 5125,
      "count": 156,
      "type": "SCALAR"
    },
    {
      "bufferView": 2,
      "byteOffset": 41184,
      "componentType": 5126,
      "count": 1331,
      "max": [
        88.14332580566406,
        89.50308990478516,
        339.62481689453125
      ],
      "min": [
        -88.14332580566406,
        -89.5030746459961,
        -90.20808410644531
      ],
      "type": "VEC3"
    },
    {
      "bufferView": 2,
      "byteOffset": 57156,
      "componentType": 5126,
      "count": 1331,
      "max": [
        1.0,
        1.0,
        1.0
      ],
      "min": [
        -1.0,
        -1.0,
        -1.0
      ],
      "type": "VEC3"
    },
    {
      "bufferView": 3,
      "byteOffset": 27456,
      "componentType": 5126,
      "count": 1331,
      "max": [
        1.0,
        1.0,
        1.0,
        1.0
      ],
      "min": [
        -1.0,
        -1.0,
        -1.0,
        -1.0
      ],
      "type": "VEC4"
    },
    {
      "bufferView": 1,
      "byteOffset": 13728,
      "componentType": 5126,
      "count": 1331,
      "max": [
        0.7503505945205688,
        0.9981975555419922
      ],
      "min": [
        0.001262177713215351,
        0.012177957221865654
      ],
      "type": "VEC2"
    },
    {
      "bufferView": 0,
      "byteOffset": 20880,
      "componentType": 5125,
      "count": 4992,
      "type": "SCALAR"
    },
    {
      "bufferView": 2,
      "byteOffset": 73128,
      "componentType": 5126,
      "count": 4,
      "max": [
        1026.79443359375,
        500.0,
        0.0
      ],
      "min": [
        -1005.366455078125,
        -500.0,
        0.0
      ],
      "type": "VEC3"
    },
    {
      "bufferView": 2,
      "byteOffset": 73176,
      "componentType": 5126,
      "count": 4,
      "max": [
        0.0,
        0.0,
        1.0
      ],
      "min": [
        0.0,
        0.0,
        1.0
      ],
      "type": "VEC3"
    },
    {
      "bufferView": 3,
      "byteOffset": 48752,
      "componentType": 5126,
      "count": 4,
      "max": [
        1.0,
        0.0,
        0.0,
        1.0
      ],
      "min": [
        1.0,
        0.0,
        0.0,
        1.0
      ],
      "type": "VEC4"
    },
    {
      "bufferView": 1,
      "byteOffset": 24376,
      "componentType": 5126,
      "count": 4,
      "max": [
        1.0,
        0.7460435032844543
      ],
      "min": [
        0.0,
        0.25395649671554565
      ],
      "type": "VEC2"
    },
    {
      "bufferView": 0,
      "byteOffset": 40848,
      "componentType": 5125,
      "count": 6,
      "type": "SCALAR"
    }
  ],
  "asset": {
    "extras": {
      "author": "sergeilihandristov (https://sketchfab.com/sergeilihandristov)",
      "license": "CC-BY-4.0 (http://creativecommons.org/licenses/by/4.0/)",
      "source": "https://sketchfab.com/3d-models/desk-lamp-ac5135b505694287a64b4370ea2cda8d",
      "title": "Desk lamp"
    },
    "generator": "Sketchfab-15.27.0",
    "version": "2.0"
  },
  "bufferViews": [
    {
      "buffer": 0,
      "byteLength": 40872,
      "name": "floatBufferViews",
      "target": 34963
    },
    {
      "buffer": 0,
      "byteLength": 24408,
      "byteOffset": 40872,
      "byteStride": 8,
      "name": "floatBufferViews",
      "target": 34962
    },
    {
      "buffer": 0,
      "byteLength": 73224,
      "byteOffset": 65280,
      "byteStride": 12,
      "name": "floatBufferViews",
      "target": 34962
    },
    {
      "buffer": 0,
      "byteLength": 48816,
      "byteOffset": 138504,
      "byteStride": 16,
      "name": "floatBufferViews",
      "target": 34962
    }
  ],
  "buffers": [
    {
      "byteLength": 187320,
      "uri": "scene.bin"
    }
  ],
  "extensionsUsed": [
    "KHR_materials_emissive_strength"
  ],
  "images": [
    {
      "uri": "textures/lamp_baseColor.png"
    },
    {
      "uri": "textures/lamp_metallicRoughness.png"
    },
    {
      "uri": "textures/lamp_emissive.jpeg"
    },
    {
      "uri": "textures/lamp_normal.png"
    },
    {
      "uri": "textures/table_baseColor.jpeg"
    },
    {
      "uri": "textures/table_metallicRoughness.png"
    },
    {
      "uri": "textures/table_normal.png"
    }
  ],
  "materials": [
    {
      "alphaMode": "BLEND",
      "doubleSided": true,
      "emissiveFactor": [
        1.0,
        1.0,
        1.0
      ],
      "emissiveTexture": {
        "index": 2
      },
      "extensions": {
        "KHR_materials_emissive_strength": {
          "emissiveStrength": 3.1542953273762357
        }
      },
      "name": "lamp",
      "normalTexture": {
        "index": 3
      },
      "occlusionTexture": {
        "index": 1
      },
      "pbrMetallicRoughness": {
        "baseColorTexture": {
          "index": 0
        },
        "metallicRoughnessTexture": {
          "index": 1
        }
      }
    },
    {
      "doubleSided": true,
      "name": "table",
      "normalTexture": {
        "index": 6
      },
      "pbrMetallicRoughness": {
        "baseColorTexture": {
          "index": 4
        },
        "metallicRoughnessTexture": {
          "index": 5
        }
      }
    }
  ],
  "meshes": [
    {
      "name": "Cylinder004_lamp_0",
      "primitives": [
        {
          "attributes": {
            "NORMAL": 1,
            "POSITION": 0,
            "TANGENT": 2,
            "TEXCOORD_0": 3
          },
          "indices": 4,
          "material": 0,
          "mode": 4
        }
      ]
    },
    {
      "name": "Sphere003_lamp_0",
      "primitives": [
        {
          "attributes": {
            "NORMAL": 6,
            "POSITION": 5,
            "TANGENT": 7,
            "TEXCOORD_0": 8
          },
          "indices": 9,
          "material": 0,
          "mode": 4
        }
      ]
    },
    {
      "name": "Plane002_lamp_0",
      "primitives": [
        {
          "attributes": {
            "NORMAL": 11,
            "POSITION": 10,
            "TANGENT": 12,
            "TEXCOORD_0": 13
          },
          "indices": 14,
          "material": 0,
          "mode": 4
        }
      ]
    },
    {
      "name": "Object015_lamp_0",
      "primitives": [
        {
          "attributes": {
            "NORMAL": 16,
            "POSITION": 15,
            "TANGENT": 17,
            "TEXCOORD_0": 18
          },
          "indices": 19,
          "material": 0,
          "mode": 4
        }
      ]
    },
    {
      "name": "Plane006_table_0",
      "primitives": [
        {
          "attributes": {
            "NORMAL": 21,
            "POSITION": 20,
            "TANGENT": 22,
            "TEXCOORD_0": 23
          },
          "indices": 24,
          "material": 1,
          "mode": 4
        }
      ]
    }
  ],
  "nodes": [
    {
      "children": [
        1
      ],
      "matrix": [
        1.0,
        0.0,
        0.0,
        0.0,
        0.0,
        2.220446049250313e-16,
        -1.0,
        0.0,
        0.0,
        1.0,
        2.220446049250313e-16,
        0.0,
        0.0,
        0.0,
        0.0,
        1.0
      ],
      "name": "Sketchfab_model"
    },
    {
      "children": [
        2
      ],
      "matrix": [
        0.0010000000474974513,
        0.0,
        0.0,
        0.0,
        0.0,
        0.0,
        0.0010000000474974513,
        0.0,
        0.0,
        -0.0010000000474974513,
        0.0,
        0.0,
        0.0,
        0.0,
        0.0,
        1.0
      ],
      "name": "637c9da5bb854eeb84721298b053ac75.fbx"
    },
    {
      "children": [
        3,
        5,
        7,
        9,
        12
      ],
      "name": "RootNode"
    },
    {
      "children": [
        4
      ],
      "matrix": [
        1.0,
        0.0,
        0.0,
        0.0,
        0.0,
        2.220446049250313e-16,
        -1.0,
        0.0,
        0.0,
        1.0,
        2.220446049250313e-16,
        0.0,
        0.0,
        315.43798828125,
        4.6841630102706713e-14,
        1.0
      ],
      "name": "Cylinder004"
    },
    {
      "mesh": 0,
      "name": "Cylinder004_lamp_0"
    },
    {
      "children": [
        6
      ],
      "matrix": [
        1.0,
        0.0,
        0.0,
        0.0,
        0.0,
        2.220446049250313e-16,
        -1.0,
        0.0,
        0.0,
        1.0,
        2.220446049250313e-16,
        0.0,
        0.0,
        398.1732177734375,
        3.1053707782308093e-13,
        1.0
      ],
      "name": "Sphere003"
    },
    {
      "mesh": 1,
      "name": "Sphere003_lamp_0"
    },
    {
      "children": [
        8
      ],
      "matrix": [
        4.3711388175715626e-08,
        6.617444900424222e-24,
        0.999999999999999,
        0.0,
        -4.371138822550555e-08,
        0.999999999999999,
        1.9106854552385377e-15,
        0.0,
        -0.9999999999999981,
        -4.37113882255056e-08,
        4.3711388175715626e-08,
        0.0,
        62.27155303955078,
        212.88116455078125,
        3.2175087247288126e-13,
        1.0
      ],
      "name": "Plane002"
    },
    {
      "mesh": 2,
      "name": "Plane002_lamp_0"
    },
    {
      "children": [
        10
      ],
      "matrix": [
        1.0,
        0.0,
        0.0,
        0.0,
        0.0,
        2.220446049250313e-16,
        -1.0,
        0.0,
        0.0,
        1.0,
        2.220446049250313e-16,
        0.0,
        0.0,
        -54.46747589111328,
        -4.034525773022324e-06,
        1.0
      ],
      "name": "Object015"
    },
    {
      "children": [
        11
      ],
      "matrix": [
        1.0,
        0.0,
        -0.0,
        0.0,
        0.0,
        1.0,
        0.0,
        0.0,
        0.0,
        0.0,
        1.0,
        0.0,
        0.0,
        -2.3808490823284956e-06,
        90.27112579345703,
        1.0
      ],
      "name": "Object_10"
    },
    {
      "mesh": 3,
      "name": "Object015_lamp_0"
    },
    {
      "children": [
        13
      ],
      "matrix": [
        1.0,
        0.0,
        0.0,
        0.0,
        0.0,
        2.220446049250313e-16,
        -1.0,
        0.0,
        0.0,
        1.0,
        2.220446049250313e-16,
        0.0,
        2.46221923828125,
        -54.42790222167969,
        -2.3791192234057235e-06,
        1.0
      ],
      "name": "Plane006"
    },
    {
      "mesh": 4,
      "name": "Plane006_table_0"
    }
  ],
  "samplers": [
    {
      "magFilter": 9729,
      "minFilter": 9987,
      "wrapS": 10497,
      "wrapT": 10497
    }
  ],
  "scene": 0,
  "scenes": [
    {
      "name": "Sketchfab_Scene",
      "nodes": [
        0
      ]
    }
  ],
  "textures": [
    {
      "sampler": 0,
      "source": 0
    },
    {
      "sampler": 0,
      "source": 1
    },
    {
      "sampler": 0,
      "source": 2
    },
    {
      "sampler": 0,
      "source": 3
    },
    {
      "sampler": 0,
      "source": 4
    },
    {
      "sampler": 0,
      "source": 5
    },
    {
      "sampler": 0,
      "source": 6
    }
  ]
}
